<svg xmlns="http://www.w3.org/2000/svg" version="1.1" style="font-family:Lato, &#x27;Helvetica Neue&#x27;, Helvetica, Arial, &#x27;Liberation Sans&#x27;, sans-serif;font-size:18px;background-color:#ffffff;text-rendering:geometricPrecision;-webkit-font-smoothing:antialiased" width="850" height="691.4" viewBox="0 0 850 691.4"><defs></defs><defs><pattern id="noDataPattern" patternUnits="userSpaceOnUse" width="4" height="4" patternTransform="rotate(-45 2 2)"><path d="M -1,2 l 6,0" stroke="#ccc" stroke-width="0.7"></path></pattern></defs><rect class="background-fill" fill="#ffffff" width="850" height="691.4"></rect><g id="header" class="HeaderView"><g id="logo" transform="translate(769, 16) scale(1)"><svg className="owidLogo" xmlns="http://www.w3.org/2000/svg" width="65" height="36" viewBox="0 0 65 36"  fill="none"><path fill="#002147" d="M0 0h64.8v36H0z"/><path fill="#CE261E" d="M0 33.3h64.8V36H0z"/><path fill="#fff" d="M13.796 10.575c0 .636-.106 1.226-.318 1.77a4.193 4.193 0 0 1-.894 1.404 4.084 4.084 0 0 1-1.386.93c-.54.22-1.138.33-1.794.33-.656 0-1.256-.11-1.8-.33a4.149 4.149 0 0 1-1.392-.93 4.193 4.193 0 0 1-.894-1.404A4.833 4.833 0 0 1 5 10.575c0-.636.106-1.224.318-1.764a4.18 4.18 0 0 1 .894-1.41 4.076 4.076 0 0 1 1.392-.924 4.684 4.684 0 0 1 1.8-.336c.656 0 1.254.112 1.794.336.54.224 1.002.534 1.386.93.384.392.682.86.894 1.404.212.54.318 1.128.318 1.764Zm-1.656 0c0-.476-.064-.902-.192-1.278a2.671 2.671 0 0 0-.54-.966 2.332 2.332 0 0 0-.864-.606 2.94 2.94 0 0 0-1.14-.21c-.424 0-.806.07-1.146.21-.34.14-.63.342-.87.606a2.742 2.742 0 0 0-.546.966 3.955 3.955 0 0 0-.192 1.278c0 .476.064.904.192 1.284.128.376.31.696.546.96.24.26.53.46.87.6.34.14.722.21 1.146.21.424 0 .804-.07 1.14-.21.34-.14.628-.34.864-.6.236-.264.416-.584.54-.96a4.01 4.01 0 0 0 .192-1.284ZM16.104 8.757v3.912c0 .376.086.668.258.876.176.204.438.306.786.306.256 0 .496-.056.72-.168a2.58 2.58 0 0 0 .636-.474V8.757h1.482v6.156h-.906c-.192 0-.318-.09-.378-.27l-.102-.492a4.65 4.65 0 0 1-.396.354 2.577 2.577 0 0 1-.438.27 2.35 2.35 0 0 1-.498.168 2.345 2.345 0 0 1-.57.066c-.336 0-.634-.056-.894-.168a1.821 1.821 0 0 1-.648-.486 2.157 2.157 0 0 1-.402-.738 3.233 3.233 0 0 1-.132-.948V8.757h1.482ZM21.328 14.913V8.757h.87c.152 0 .258.028.318.084.06.056.1.152.12.288l.09.744c.22-.38.478-.68.774-.9.296-.22.628-.33.996-.33.304 0 .556.07.756.21l-.192 1.11c-.012.072-.038.124-.078.156a.278.278 0 0 1-.162.042 1.01 1.01 0 0 1-.246-.042 1.646 1.646 0 0 0-.414-.042c-.308 0-.572.086-.792.258-.22.168-.406.416-.558.744v3.834h-1.482ZM27.347 6.237h1.356a.57.57 0 0 1 .348.102c.096.064.16.152.192.264l1.476 5.19c.036.128.068.268.096.42.032.148.062.306.09.474a5.968 5.968 0 0 1 .228-.894l1.704-5.19a.575.575 0 0 1 .186-.252.543.543 0 0 1 .348-.114h.474a.57.57 0 0 1 .348.102.497.497 0 0 1 .192.264l1.692 5.19c.088.256.164.54.228.852.028-.156.056-.306.084-.45.032-.144.064-.278.096-.402l1.476-5.19c.028-.1.09-.186.186-.258a.563.563 0 0 1 .348-.108h1.266l-2.694 8.676h-1.458l-1.896-5.928-.078-.246a9.504 9.504 0 0 1-.072-.282c-.024.1-.05.194-.078.282-.024.088-.048.17-.072.246l-1.914 5.928H30.04l-2.694-8.676ZM42.771 8.661c.46 0 .876.074 1.248.222.376.148.696.358.96.63s.468.604.612.996c.144.392.216.83.216 1.314 0 .488-.072.928-.216 1.32a2.85 2.85 0 0 1-.612 1.002 2.653 2.653 0 0 1-.96.636 3.35 3.35 0 0 1-1.248.222c-.46 0-.878-.074-1.254-.222a2.712 2.712 0 0 1-.966-.636 2.922 2.922 0 0 1-.618-1.002 3.807 3.807 0 0 1-.216-1.32c0-.484.072-.922.216-1.314.148-.392.354-.724.618-.996.268-.272.59-.482.966-.63a3.397 3.397 0 0 1 1.254-.222Zm0 5.202c.512 0 .89-.172 1.134-.516.248-.344.372-.848.372-1.512s-.124-1.17-.372-1.518c-.244-.348-.622-.522-1.134-.522-.52 0-.904.176-1.152.528-.248.348-.372.852-.372 1.512s.124 1.164.372 1.512c.248.344.632.516 1.152.516ZM46.723 14.913V8.757h.87c.152 0 .258.028.318.084.06.056.1.152.12.288l.09.744c.22-.38.478-.68.774-.9.296-.22.628-.33.996-.33.304 0 .556.07.756.21l-.192 1.11c-.012.072-.038.124-.078.156a.278.278 0 0 1-.162.042 1.01 1.01 0 0 1-.246-.042 1.646 1.646 0 0 0-.414-.042c-.308 0-.572.086-.792.258-.22.168-.406.416-.558.744v3.834h-1.482ZM52.96 5.997v8.916h-1.482V5.997h1.482ZM58.732 14.913c-.192 0-.318-.09-.378-.27l-.12-.594a3.68 3.68 0 0 1-.402.39c-.14.116-.292.216-.456.3-.16.084-.334.148-.522.192a2.372 2.372 0 0 1-.6.072c-.336 0-.644-.07-.924-.21a2.098 2.098 0 0 1-.726-.606 3.033 3.033 0 0 1-.468-.99 5.072 5.072 0 0 1-.162-1.344c0-.456.062-.88.186-1.272s.302-.732.534-1.02c.232-.288.51-.512.834-.672a2.384 2.384 0 0 1 1.092-.246 2.103 2.103 0 0 1 1.536.606V5.997h1.482v8.916h-.906Zm-1.974-1.086c.308 0 .57-.064.786-.192.216-.128.42-.31.612-.546v-2.76a1.452 1.452 0 0 0-.552-.432 1.597 1.597 0 0 0-.636-.126c-.224 0-.428.042-.612.126a1.21 1.21 0 0 0-.462.384c-.124.168-.22.384-.288.648-.068.26-.102.568-.102.924 0 .36.028.666.084.918.06.248.144.452.252.612.108.156.24.27.396.342.156.068.33.102.522.102ZM16.331 20.757v6.156H14.85v-6.156h1.481Zm.223-1.794a.844.844 0 0 1-.078.36.963.963 0 0 1-.21.294.995.995 0 0 1-.3.204.963.963 0 0 1-.372.072.948.948 0 0 1-.367-.072 1.018 1.018 0 0 1-.498-.498.963.963 0 0 1 0-.732.995.995 0 0 1 .205-.3.929.929 0 0 1 .293-.198.899.899 0 0 1 .738 0 .912.912 0 0 1 .3.198.943.943 0 0 1 .288.672ZM17.771 26.913v-6.156h.906c.192 0 .318.09.378.27l.102.486a2.934 2.934 0 0 1 .828-.618c.156-.076.322-.134.498-.174.176-.04.368-.06.576-.06.336 0 .634.058.894.174.26.112.476.272.648.48.176.204.308.45.396.738.092.284.138.598.138.942v3.918h-1.482v-3.918c0-.376-.088-.666-.264-.87-.172-.208-.432-.312-.78-.312-.256 0-.496.058-.72.174a2.58 2.58 0 0 0-.636.474v4.452h-1.482ZM34.22 22.575c0 .636-.106 1.22-.318 1.752-.212.532-.51.99-.894 1.374a4 4 0 0 1-1.386.894 4.87 4.87 0 0 1-1.794.318h-3.312v-8.676h3.312a4.79 4.79 0 0 1 1.794.324 4 4 0 0 1 1.386.894c.384.38.682.836.894 1.368.212.532.318 1.116.318 1.752Zm-1.65 0c0-.476-.064-.902-.192-1.278a2.68 2.68 0 0 0-.546-.96 2.332 2.332 0 0 0-.864-.606 2.94 2.94 0 0 0-1.14-.21h-1.686v6.108h1.686c.424 0 .804-.07 1.14-.21.34-.14.628-.34.864-.6a2.75 2.75 0 0 0 .546-.96 4.01 4.01 0 0 0 .192-1.284ZM39.98 26.913h-.665c-.14 0-.25-.02-.33-.06-.08-.044-.14-.13-.18-.258l-.132-.438c-.156.14-.31.264-.462.372a2.804 2.804 0 0 1-.462.264c-.16.072-.33.126-.51.162-.18.036-.38.054-.6.054-.26 0-.5-.034-.72-.102a1.618 1.618 0 0 1-.57-.318 1.448 1.448 0 0 1-.366-.522 1.852 1.852 0 0 1-.132-.726c0-.232.06-.46.18-.684.124-.228.328-.432.612-.612.284-.184.662-.336 1.134-.456.472-.12 1.058-.188 1.758-.204v-.36c0-.412-.088-.716-.264-.912-.172-.2-.424-.3-.756-.3a1.837 1.837 0 0 0-1.02.276c-.116.068-.224.13-.324.186a.664.664 0 0 1-.33.084.429.429 0 0 1-.258-.078.614.614 0 0 1-.174-.192l-.27-.474c.708-.648 1.562-.972 2.562-.972.36 0 .68.06.96.18.284.116.524.28.72.492.196.208.344.458.444.75.104.292.156.612.156.96v3.888Zm-2.88-.924c.153 0 .293-.014.42-.042.129-.028.249-.07.36-.126.117-.056.227-.124.33-.204.109-.084.217-.182.325-.294v-1.038c-.432.02-.794.058-1.086.114-.288.052-.52.12-.696.204a.923.923 0 0 0-.378.294.664.664 0 0 0-.108.366c0 .26.076.446.228.558.156.112.358.168.606.168ZM43.22 27.01c-.532 0-.942-.15-1.23-.45-.288-.305-.432-.723-.432-1.255v-3.438h-.624a.31.31 0 0 1-.21-.078c-.056-.052-.084-.13-.084-.234v-.588l.99-.162.312-1.68a.302.302 0 0 1 .108-.186.365.365 0 0 1 .222-.066h.768v1.938h1.62v1.056h-1.62v3.336c0 .192.048.342.144.45a.488.488 0 0 0 .384.162c.092 0 .168-.01.228-.03.064-.024.118-.048.162-.072.048-.024.09-.046.126-.066a.194.194 0 0 1 .108-.036.16.16 0 0 1 .108.036c.028.02.058.052.09.096l.444.72c-.216.18-.464.316-.744.408a2.77 2.77 0 0 1-.87.138ZM50.423 26.913h-.666c-.14 0-.25-.02-.33-.06-.08-.044-.14-.13-.18-.258l-.132-.438c-.156.14-.31.264-.462.372a2.804 2.804 0 0 1-.462.264c-.16.072-.33.126-.51.162-.18.036-.38.054-.6.054-.26 0-.5-.034-.72-.102a1.618 1.618 0 0 1-.57-.318 1.448 1.448 0 0 1-.366-.522 1.852 1.852 0 0 1-.132-.726c0-.232.06-.46.18-.684.124-.228.328-.432.612-.612.284-.184.662-.336 1.134-.456.472-.12 1.058-.188 1.758-.204v-.36c0-.412-.088-.716-.264-.912-.172-.2-.424-.3-.756-.3a1.837 1.837 0 0 0-1.02.276c-.116.068-.224.13-.324.186a.664.664 0 0 1-.33.084.429.429 0 0 1-.258-.078.614.614 0 0 1-.174-.192l-.27-.474c.708-.648 1.562-.972 2.562-.972.36 0 .68.06.96.18.284.116.524.28.72.492.196.208.344.458.444.75.104.292.156.612.156.96v3.888Zm-2.88-.924c.152 0 .292-.014.42-.042.128-.028.248-.07.36-.126.116-.056.226-.124.33-.204.108-.084.216-.182.324-.294v-1.038c-.432.02-.794.058-1.086.114-.288.052-.52.12-.696.204a.923.923 0 0 0-.378.294.664.664 0 0 0-.108.366c0 .26.076.446.228.558.156.112.358.168.606.168Z"/></svg></g><a id="title" href="https://ourworldindata.org/grapher/life-expectancy?country=~JPN" style="font-family:&#x27;Playfair Display&#x27;, Georgia, &#x27;Times New Roman&#x27;, &#x27;Liberation Serif&#x27;, serif" target="_blank" rel="noopener"><text font-size="25.00" font-weight="600" x="16.0" y="40.3" fill="#2d2e2d"><tspan x="16" y="40.25">Life expectancy</tspan></text></a><g id="subtitle" class="markdown-text-wrap"><text x="16.0" y="66.5" style="font-size:15px;line-height:1.2" fill="#5b5b5b"><tspan x="16" y="66.5">The <tspan class="dod-span" data-id="period-life-expectancy">period life expectancy<tspan style="font-feature-settings:&quot;sups&quot;">¹</tspan></tspan> at birth, in a given year.</tspan></text></g></g><g id="chart-area" style="pointer-events:none"><g id="horizontal-axis" class="HorizontalAxis"><g id="tick-marks"><line id="1865" x1="71.1" y1="531.9" x2="71.1" y2="537.4" stroke="#999" stroke-width="1"></line><line id="2023" x1="767.3" y1="531.9" x2="767.3" y2="537.4" stroke="#999" stroke-width="1"></line><line id="1880" x1="137.1" y1="531.9" x2="137.1" y2="537.4" stroke="#999" stroke-width="1"></line><line id="1900" x1="225.3" y1="531.9" x2="225.3" y2="537.4" stroke="#999" stroke-width="1"></line><line id="1920" x1="313.4" y1="531.9" x2="313.4" y2="537.4" stroke="#999" stroke-width="1"></line><line id="1940" x1="401.5" y1="531.9" x2="401.5" y2="537.4" stroke="#999" stroke-width="1"></line><line id="1960" x1="489.7" y1="531.9" x2="489.7" y2="537.4" stroke="#999" stroke-width="1"></line><line id="1980" x1="577.8" y1="531.9" x2="577.8" y2="537.4" stroke="#999" stroke-width="1"></line><line id="2000" x1="665.9" y1="531.9" x2="665.9" y2="537.4" stroke="#999" stroke-width="1"></line></g><g id="tick-labels"><text x="71.05000000000001" y="550.4" fill="#5b5b5b" text-anchor="start" font-size="13">1865</text><text x="767.3" y="550.4" fill="#5b5b5b" text-anchor="end" font-size="13">2023</text><text x="137.1" y="550.4" fill="#5b5b5b" text-anchor="middle" font-size="13">1880</text><text x="225.3" y="550.4" fill="#5b5b5b" text-anchor="middle" font-size="13">1900</text><text x="313.4" y="550.4" fill="#5b5b5b" text-anchor="middle" font-size="13">1920</text><text x="401.5" y="550.4" fill="#5b5b5b" text-anchor="middle" font-size="13">1940</text><text x="489.7" y="550.4" fill="#5b5b5b" text-anchor="middle" font-size="13">1960</text><text x="577.8" y="550.4" fill="#5b5b5b" text-anchor="middle" font-size="13">1980</text><text x="665.9" y="550.4" fill="#5b5b5b" text-anchor="middle" font-size="13">2000</text></g></g><g id="vertical-axis" class="VerticalAxis"><g id="tick-labels"><text x="66.05" y="532.4" dy=".32em" text-anchor="end" fill="#5b5b5b" font-size="13">0 years</text><text x="66.05" y="483.5" dy=".32em" text-anchor="end" fill="#5b5b5b" font-size="13">10 years</text><text x="66.05" y="434.5" dy=".32em" text-anchor="end" fill="#5b5b5b" font-size="13">20 years</text><text x="66.05" y="385.6" dy=".32em" text-anchor="end" fill="#5b5b5b" font-size="13">30 years</text><text x="66.05" y="336.7" dy=".32em" text-anchor="end" fill="#5b5b5b" font-size="13">40 years</text><text x="66.05" y="287.7" dy=".32em" text-anchor="end" fill="#5b5b5b" font-size="13">50 years</text><text x="66.05" y="238.8" dy=".32em" text-anchor="end" fill="#5b5b5b" font-size="13">60 years</text><text x="66.05" y="189.9" dy=".32em" text-anchor="end" fill="#5b5b5b" font-size="13">70 years</text><text x="66.05" y="140.9" dy=".32em" text-anchor="end" fill="#5b5b5b" font-size="13">80 years</text><text x="66.05" y="92" dy=".32em" text-anchor="end" fill="#5b5b5b" font-size="13">90 years</text></g></g><g id="horizontal-grid-lines" class="AxisGridLines horizontalLines"><line id="0-years" x1="71.05" y1="532.4" x2="767.30" y2="532.4" stroke="#999"></line><line id="10-years" x1="71.05" y1="483.5" x2="767.30" y2="483.5" stroke="#ddd" stroke-dasharray="4,4"></line><line id="20-years" x1="71.05" y1="434.5" x2="767.30" y2="434.5" stroke="#ddd" stroke-dasharray="4,4"></line><line id="30-years" x1="71.05" y1="385.6" x2="767.30" y2="385.6" stroke="#ddd" stroke-dasharray="4,4"></line><line id="40-years" x1="71.05" y1="336.7" x2="767.30" y2="336.7" stroke="#ddd" stroke-dasharray="4,4"></line><line id="50-years" x1="71.05" y1="287.7" x2="767.30" y2="287.7" stroke="#ddd" stroke-dasharray="4,4"></line><line id="60-years" x1="71.05" y1="238.8" x2="767.30" y2="238.8" stroke="#ddd" stroke-dasharray="4,4"></line><line id="70-years" x1="71.05" y1="189.9" x2="767.30" y2="189.9" stroke="#ddd" stroke-dasharray="4,4"></line><line id="80-years" x1="71.05" y1="140.9" x2="767.30" y2="140.9" stroke="#ddd" stroke-dasharray="4,4"></line><line id="90-years" x1="71.05" y1="92" x2="767.30" y2="92" stroke="#ddd" stroke-dasharray="4,4"></line></g><g id="line-labels" class="LineLabels"><g id="text-annotations"></g><g id="text-labels"><text font-size="13.00" font-weight="400" x="771.3" y="122.7" fill="#b13507" opacity="1" text-anchor="start"><tspan x="771.3" y="122.71000000000001">Japan</tspan></text></g></g><g id="lines"><path fill="none" stroke-linecap="butt" stroke-linejoin="round" stroke="#ffffff" id="outline__Japan" stroke-width="2.5" d="M71.1 354.2L93.1 353.3L115.1 352.3L137.1 351.2L159.2 349.7L181.2 348L203.2 346L225.3 343.5L247.3 340.5L269.3 336.8L291.4 332.3L313.4 326.7L322.2 323.9L344.3 309L379.5 296.3L423.6 383L432.4 279.4L436.8 254.3L441.2 250L445.6 242.4L450 234L454.4 224.1L458.8 222.5L463.2 216.6L467.6 210.9L472.1 211.6L476.5 212.2L480.9 204.3L485.3 202.3L489.7 201L494.1 197.8L498.5 196.4L502.9 191.1L507.3 188.9L511.7 188.6L516.1 184.7L520.5 183L524.9 181.7L529.3 180.5L533.7 180L538.2 176L542.6 173.9L547 173.1L551.4 171L555.8 168.5L560.2 166.6L564.6 163.8L569 162.2L573.4 159.7L577.8 159.8L582.2 157.8L586.6 155.3L591 155.1L595.4 153.1L599.8 151.7L604.3 149.7L608.7 147.6L613.1 148.1L617.5 145.9L621.9 145.9L626.3 144.5L630.7 144.3L635.1 143.6L639.5 141.7L643.9 142.5L648.3 139.2L652.7 138.1L657.1 137.8L661.5 137.9L665.9 135.2L670.4 133.5L674.8 132.1L679.2 131.9L683.6 130.5L688 131.1L692.4 129.3L696.8 128.5L701.2 128L705.6 126.4L710 126.7L714.4 127.9L718.8 125.4L723.2 124.3L727.6 123.1L732 121.9L736.5 121.1L740.9 120.4L745.3 119.9L749.7 119.3L754.1 118.1L758.5 118.7L762.9 121.1L767.3 117.9"></path><path fill="none" stroke-linecap="butt" stroke-linejoin="round" stroke="#b13507" id="line__Japan" stroke-width="1.5" stroke-opacity="1" d="M71.1 354.2L93.1 353.3L115.1 352.3L137.1 351.2L159.2 349.7L181.2 348L203.2 346L225.3 343.5L247.3 340.5L269.3 336.8L291.4 332.3L313.4 326.7L322.2 323.9L344.3 309L379.5 296.3L423.6 383L432.4 279.4L436.8 254.3L441.2 250L445.6 242.4L450 234L454.4 224.1L458.8 222.5L463.2 216.6L467.6 210.9L472.1 211.6L476.5 212.2L480.9 204.3L485.3 202.3L489.7 201L494.1 197.8L498.5 196.4L502.9 191.1L507.3 188.9L511.7 188.6L516.1 184.7L520.5 183L524.9 181.7L529.3 180.5L533.7 180L538.2 176L542.6 173.9L547 173.1L551.4 171L555.8 168.5L560.2 166.6L564.6 163.8L569 162.2L573.4 159.7L577.8 159.8L582.2 157.8L586.6 155.3L591 155.1L595.4 153.1L599.8 151.7L604.3 149.7L608.7 147.6L613.1 148.1L617.5 145.9L621.9 145.9L626.3 144.5L630.7 144.3L635.1 143.6L639.5 141.7L643.9 142.5L648.3 139.2L652.7 138.1L657.1 137.8L661.5 137.9L665.9 135.2L670.4 133.5L674.8 132.1L679.2 131.9L683.6 130.5L688 131.1L692.4 129.3L696.8 128.5L701.2 128L705.6 126.4L710 126.7L714.4 127.9L718.8 125.4L723.2 124.3L727.6 123.1L732 121.9L736.5 121.1L740.9 120.4L745.3 119.9L749.7 119.3L754.1 118.1L758.5 118.7L762.9 121.1L767.3 117.9"></path><g id="datapoints__Japan"><circle id="1865" cx="71.1" cy="354.2" r="1.8" fill="#b13507" opacity="1"></circle><circle id="1870" cx="93.1" cy="353.3" r="1.8" fill="#b13507" opacity="1"></circle><circle id="1875" cx="115.1" cy="352.3" r="1.8" fill="#b13507" opacity="1"></circle><circle id="1880" cx="137.1" cy="351.2" r="1.8" fill="#b13507" opacity="1"></circle><circle id="1885" cx="159.2" cy="349.7" r="1.8" fill="#b13507" opacity="1"></circle><circle id="1890" cx="181.2" cy="348" r="1.8" fill="#b13507" opacity="1"></circle><circle id="1895" cx="203.2" cy="346" r="1.8" fill="#b13507" opacity="1"></circle><circle id="1900" cx="225.3" cy="343.5" r="1.8" fill="#b13507" opacity="1"></circle><circle id="1905" cx="247.3" cy="340.5" r="1.8" fill="#b13507" opacity="1"></circle><circle id="1910" cx="269.3" cy="336.8" r="1.8" fill="#b13507" opacity="1"></circle><circle id="1915" cx="291.4" cy="332.3" r="1.8" fill="#b13507" opacity="1"></circle><circle id="1920" cx="313.4" cy="326.7" r="1.8" fill="#b13507" opacity="1"></circle><circle id="1922" cx="322.2" cy="323.9" r="1.8" fill="#b13507" opacity="1"></circle><circle id="1927" cx="344.3" cy="309" r="1.8" fill="#b13507" opacity="1"></circle><circle id="1935" cx="379.5" cy="296.3" r="1.8" fill="#b13507" opacity="1"></circle><circle id="1945" cx="423.6" cy="383" r="1.8" fill="#b13507" opacity="1"></circle><circle id="1947" cx="432.4" cy="279.4" r="1.8" fill="#b13507" opacity="1"></circle><circle id="1948" cx="436.8" cy="254.3" r="1.8" fill="#b13507" opacity="1"></circle><circle id="1949" cx="441.2" cy="250" r="1.8" fill="#b13507" opacity="1"></circle><circle id="1950" cx="445.6" cy="242.4" r="1.8" fill="#b13507" opacity="1"></circle><circle id="1951" cx="450" cy="234" r="1.8" fill="#b13507" opacity="1"></circle><circle id="1952" cx="454.4" cy="224.1" r="1.8" fill="#b13507" opacity="1"></circle><circle id="1953" cx="458.8" cy="222.5" r="1.8" fill="#b13507" opacity="1"></circle><circle id="1954" cx="463.2" cy="216.6" r="1.8" fill="#b13507" opacity="1"></circle><circle id="1955" cx="467.6" cy="210.9" r="1.8" fill="#b13507" opacity="1"></circle><circle id="1956" cx="472.1" cy="211.6" r="1.8" fill="#b13507" opacity="1"></circle><circle id="1957" cx="476.5" cy="212.2" r="1.8" fill="#b13507" opacity="1"></circle><circle id="1958" cx="480.9" cy="204.3" r="1.8" fill="#b13507" opacity="1"></circle><circle id="1959" cx="485.3" cy="202.3" r="1.8" fill="#b13507" opacity="1"></circle><circle id="1960" cx="489.7" cy="201" r="1.8" fill="#b13507" opacity="1"></circle><circle id="1961" cx="494.1" cy="197.8" r="1.8" fill="#b13507" opacity="1"></circle><circle id="1962" cx="498.5" cy="196.4" r="1.8" fill="#b13507" opacity="1"></circle><circle id="1963" cx="502.9" cy="191.1" r="1.8" fill="#b13507" opacity="1"></circle><circle id="1964" cx="507.3" cy="188.9" r="1.8" fill="#b13507" opacity="1"></circle><circle id="1965" cx="511.7" cy="188.6" r="1.8" fill="#b13507" opacity="1"></circle><circle id="1966" cx="516.1" cy="184.7" r="1.8" fill="#b13507" opacity="1"></circle><circle id="1967" cx="520.5" cy="183" r="1.8" fill="#b13507" opacity="1"></circle><circle id="1968" cx="524.9" cy="181.7" r="1.8" fill="#b13507" opacity="1"></circle><circle id="1969" cx="529.3" cy="180.5" r="1.8" fill="#b13507" opacity="1"></circle><circle id="1970" cx="533.7" cy="180" r="1.8" fill="#b13507" opacity="1"></circle><circle id="1971" cx="538.2" cy="176" r="1.8" fill="#b13507" opacity="1"></circle><circle id="1972" cx="542.6" cy="173.9" r="1.8" fill="#b13507" opacity="1"></circle><circle id="1973" cx="547" cy="173.1" r="1.8" fill="#b13507" opacity="1"></circle><circle id="1974" cx="551.4" cy="171" r="1.8" fill="#b13507" opacity="1"></circle><circle id="1975" cx="555.8" cy="168.5" r="1.8" fill="#b13507" opacity="1"></circle><circle id="1976" cx="560.2" cy="166.6" r="1.8" fill="#b13507" opacity="1"></circle><circle id="1977" cx="564.6" cy="163.8" r="1.8" fill="#b13507" opacity="1"></circle><circle id="1978" cx="569" cy="162.2" r="1.8" fill="#b13507" opacity="1"></circle><circle id="1979" cx="573.4" cy="159.7" r="1.8" fill="#b13507" opacity="1"></circle><circle id="1980" cx="577.8" cy="159.8" r="1.8" fill="#b13507" opacity="1"></circle><circle id="1981" cx="582.2" cy="157.8" r="1.8" fill="#b13507" opacity="1"></circle><circle id="1982" cx="586.6" cy="155.3" r="1.8" fill="#b13507" opacity="1"></circle><circle id="1983" cx="591" cy="155.1" r="1.8" fill="#b13507" opacity="1"></circle><circle id="1984" cx="595.4" cy="153.1" r="1.8" fill="#b13507" opacity="1"></circle><circle id="1985" cx="599.8" cy="151.7" r="1.8" fill="#b13507" opacity="1"></circle><circle id="1986" cx="604.3" cy="149.7" r="1.8" fill="#b13507" opacity="1"></circle><circle id="1987" cx="608.7" cy="147.6" r="1.8" fill="#b13507" opacity="1"></circle><circle id="1988" cx="613.1" cy="148.1" r="1.8" fill="#b13507" opacity="1"></circle><circle id="1989" cx="617.5" cy="145.9" r="1.8" fill="#b13507" opacity="1"></circle><circle id="1990" cx="621.9" cy="145.9" r="1.8" fill="#b13507" opacity="1"></circle><circle id="1991" cx="626.3" cy="144.5" r="1.8" fill="#b13507" opacity="1"></circle><circle id="1992" cx="630.7" cy="144.3" r="1.8" fill="#b13507" opacity="1"></circle><circle id="1993" cx="635.1" cy="143.6" r="1.8" fill="#b13507" opacity="1"></circle><circle id="1994" cx="639.5" cy="141.7" r="1.8" fill="#b13507" opacity="1"></circle><circle id="1995" cx="643.9" cy="142.5" r="1.8" fill="#b13507" opacity="1"></circle><circle id="1996" cx="648.3" cy="139.2" r="1.8" fill="#b13507" opacity="1"></circle><circle id="1997" cx="652.7" cy="138.1" r="1.8" fill="#b13507" opacity="1"></circle><circle id="1998" cx="657.1" cy="137.8" r="1.8" fill="#b13507" opacity="1"></circle><circle id="1999" cx="661.5" cy="137.9" r="1.8" fill="#b13507" opacity="1"></circle><circle id="2000" cx="665.9" cy="135.2" r="1.8" fill="#b13507" opacity="1"></circle><circle id="2001" cx="670.4" cy="133.5" r="1.8" fill="#b13507" opacity="1"></circle><circle id="2002" cx="674.8" cy="132.1" r="1.8" fill="#b13507" opacity="1"></circle><circle id="2003" cx="679.2" cy="131.9" r="1.8" fill="#b13507" opacity="1"></circle><circle id="2004" cx="683.6" cy="130.5" r="1.8" fill="#b13507" opacity="1"></circle><circle id="2005" cx="688" cy="131.1" r="1.8" fill="#b13507" opacity="1"></circle><circle id="2006" cx="692.4" cy="129.3" r="1.8" fill="#b13507" opacity="1"></circle><circle id="2007" cx="696.8" cy="128.5" r="1.8" fill="#b13507" opacity="1"></circle><circle id="2008" cx="701.2" cy="128" r="1.8" fill="#b13507" opacity="1"></circle><circle id="2009" cx="705.6" cy="126.4" r="1.8" fill="#b13507" opacity="1"></circle><circle id="2010" cx="710" cy="126.7" r="1.8" fill="#b13507" opacity="1"></circle><circle id="2011" cx="714.4" cy="127.9" r="1.8" fill="#b13507" opacity="1"></circle><circle id="2012" cx="718.8" cy="125.4" r="1.8" fill="#b13507" opacity="1"></circle><circle id="2013" cx="723.2" cy="124.3" r="1.8" fill="#b13507" opacity="1"></circle><circle id="2014" cx="727.6" cy="123.1" r="1.8" fill="#b13507" opacity="1"></circle><circle id="2015" cx="732" cy="121.9" r="1.8" fill="#b13507" opacity="1"></circle><circle id="2016" cx="736.5" cy="121.1" r="1.8" fill="#b13507" opacity="1"></circle><circle id="2017" cx="740.9" cy="120.4" r="1.8" fill="#b13507" opacity="1"></circle><circle id="2018" cx="745.3" cy="119.9" r="1.8" fill="#b13507" opacity="1"></circle><circle id="2019" cx="749.7" cy="119.3" r="1.8" fill="#b13507" opacity="1"></circle><circle id="2020" cx="754.1" cy="118.1" r="1.8" fill="#b13507" opacity="1"></circle><circle id="2021" cx="758.5" cy="118.7" r="1.8" fill="#b13507" opacity="1"></circle><circle id="2022" cx="762.9" cy="121.1" r="1.8" fill="#b13507" opacity="1"></circle><circle id="2023" cx="767.3" cy="117.9" r="1.8" fill="#b13507" opacity="1"></circle></g></g></g><g id="footer" class="SourcesFooter" style="fill:#858585"><g id="sources" class="markdown-text-wrap"><text x="16.0" y="581.0" style="font-size:13px;line-height:1.2"><tspan x="16" y="581.0"><tspan style="font-weight:700">Data source:</tspan> UN WPP (2024); HMD (2024); Zijdeman et al. (2015); Riley (2005)</tspan></text></g><text id="origin-url" font-size="13.00" x="577.1" y="581.0"><tspan x="577.12" y="581.01"><a target="_blank" style="fill: #858585;" href="https://ourworldindata.org/life-expectancy">OurWorldinData.org/life-expectancy</a> | <a target="_blank" style="fill: #858585;" href="https://creativecommons.org/licenses/by/4.0/">CC BY</a></tspan></text></g><line id="separator-line" x1="16" y1="600" x2="834" y2="600" stroke="#e7e7e7"></line><g id="details" transform="translate(15, 616)"><g class="markdown-text-wrap"><text x="0.0" y="12.0" style="font-size:12.375px;fill:#858585;line-height:1.2"><tspan x="0" y="12.0"><tspan style="font-weight:700">1.</tspan> <tspan style="font-weight:700">Period life expectancy</tspan>: Period life expectancy is a metric that summarizes death rates across all age groups in one particular year. For a given</tspan><tspan x="0" y="26.9">year, it represents the average lifespan for a hypothetical group of people, if they experienced the same age-specific death rates throughout their</tspan><tspan x="0" y="41.7">whole lives as the age-specific death rates seen in that particular year. Learn more in our articles: “Life expectancy” – What does this actually</tspan><tspan x="0" y="56.6">mean? and Period versus cohort measures: what’s the difference?</tspan></text></g></g></svg>