<svg xmlns="http://www.w3.org/2000/svg" version="1.1" style="font-family:Lato, &#x27;Helvetica Neue&#x27;, Helvetica, Arial, sans-serif;font-size:18px;background-color:white;text-rendering:geometricPrecision;-webkit-font-smoothing:antialiased" width="850" height="600" viewBox="0 0 850 600"><g class="HeaderView"><g transform="translate(774, 15) scale(0.29)"><svg className="owidLog" width="210" height="120" viewBox="0 0 210 120" fill="none" xmlns="http://www.w3.org/2000/svg">
<g clip-path="url(#clip0)">
  <path d="M0 0h210v107.89H0V0z" fill="#002147" />
  <path
    d="M40.98 32.25c0 2.36-.38 4.53-1.12 6.51a14.26 14.26 0 0 1-8.1 8.4c-1.9.78-4.02 1.17-6.34 1.17-2.31 0-4.42-.39-6.33-1.17a14.31 14.31 0 0 1-8.08-8.4 18.29 18.29 0 0 1-1.12-6.51c0-2.36.38-4.53 1.12-6.5.75-1.97 1.8-3.67 3.17-5.1a14.32 14.32 0 0 1 4.9-3.34c1.92-.8 4.03-1.19 6.34-1.19 2.32 0 4.43.4 6.34 1.19 1.92.8 3.56 1.9 4.93 3.34a14.87 14.87 0 0 1 3.17 5.1 18.1 18.1 0 0 1 1.12 6.5zm-4.38 0c0-1.94-.26-3.68-.8-5.22a10.91 10.91 0 0 0-2.24-3.89 9.68 9.68 0 0 0-3.52-2.46 11.95 11.95 0 0 0-4.62-.86c-1.68 0-3.21.28-4.6.86a9.88 9.88 0 0 0-3.54 2.46 10.91 10.91 0 0 0-2.24 3.9c-.53 1.53-.8 3.27-.8 5.2 0 1.94.27 3.68.8 5.22a11.17 11.17 0 0 0 2.24 3.9 10.01 10.01 0 0 0 3.55 2.44c1.38.56 2.9.83 4.6.83s3.24-.27 4.61-.83a9.8 9.8 0 0 0 3.52-2.44 11.17 11.17 0 0 0 2.25-3.9c.53-1.54.8-3.28.8-5.21zm26.22-6.54V48H60.5c-.56 0-.9-.27-1.05-.81l-.31-2.4a12.45 12.45 0 0 1-3.26 2.6c-1.2.64-2.58.96-4.13.96-1.22 0-2.3-.2-3.24-.6a6.52 6.52 0 0 1-2.33-1.7 7.37 7.37 0 0 1-1.43-2.67c-.3-1.04-.46-2.2-.46-3.45V25.7h3.91v14.22c0 1.68.38 2.99 1.15 3.91.77.93 1.96 1.39 3.54 1.39 1.16 0 2.24-.27 3.23-.82a10.42 10.42 0 0 0 2.8-2.28V25.7h3.91zm8.61 4.47a9.94 9.94 0 0 1 2.6-3.56 5.64 5.64 0 0 1 3.76-1.3c.47 0 .92.05 1.34.15.44.1.83.27 1.17.49l-.3 2.92c-.09.37-.3.55-.66.55-.2 0-.5-.04-.9-.13a6.21 6.21 0 0 0-3.24.18 4.23 4.23 0 0 0-1.47.92c-.42.4-.81.9-1.17 1.5-.33.58-.64 1.26-.92 2.02V48H67.7V25.71h2.25c.42 0 .72.08.88.25.16.16.27.44.33.83l.26 3.39zm61.16-13.7L122.75 48h-3.82l-7.99-24.05a21.95 21.95 0 0 1-.42-1.58 38.36 38.36 0 0 1-.44 1.58L102.05 48h-3.83L88.4 16.47h3.54c.38 0 .7.1.95.29.26.2.43.43.5.73l6.52 21.9.28 1.28.29 1.46.3-1.46.38-1.27 7.41-21.91c.1-.25.26-.48.51-.69.27-.22.58-.33.95-.33h1.23c.38 0 .69.1.92.29a1.77 1.77 0 0 1 .53.73l7.4 21.9a28.4 28.4 0 0 1 .68 2.62 29.52 29.52 0 0 1 .52-2.61l6.54-21.91a1.31 1.31 0 0 1 .48-.7c.27-.21.58-.32.95-.32h3.32zm9.35 8.88c1.63 0 3.1.27 4.4.82a9.43 9.43 0 0 1 5.46 5.94c.5 1.4.74 2.98.74 4.73 0 1.76-.25 3.34-.74 4.75a9.43 9.43 0 0 1-5.46 5.92c-1.3.52-2.77.79-4.4.79-1.64 0-3.12-.27-4.44-.8a9.42 9.42 0 0 1-3.35-2.3c-.92-1-1.63-2.2-2.13-3.61-.49-1.41-.73-3-.73-4.75s.24-3.33.73-4.73c.5-1.43 1.2-2.64 2.13-3.63.93-1 2.04-1.77 3.35-2.31 1.32-.55 2.8-.82 4.44-.82zm0 19.89c2.2 0 3.84-.73 4.93-2.2 1.08-1.48 1.63-3.54 1.63-6.18 0-2.66-.55-4.72-1.63-6.2-1.09-1.49-2.73-2.23-4.93-2.23-1.12 0-2.09.2-2.93.57a5.71 5.71 0 0 0-2.06 1.65c-.55.72-.96 1.61-1.24 2.67-.26 1.04-.4 2.22-.4 3.54 0 2.64.55 4.7 1.64 6.18 1.1 1.47 2.76 2.2 4.99 2.2zm17.97-15.07a9.94 9.94 0 0 1 2.6-3.56 5.64 5.64 0 0 1 3.76-1.3c.47 0 .91.05 1.34.15.44.1.83.27 1.16.49l-.28 2.92c-.09.37-.31.55-.66.55-.2 0-.5-.04-.9-.13a6.2 6.2 0 0 0-3.24.18 4.23 4.23 0 0 0-1.47.92c-.43.4-.82.9-1.17 1.5a13.1 13.1 0 0 0-.92 2.02V48h-3.94V25.71h2.24c.43 0 .72.08.88.25.17.16.28.44.33.83l.27 3.39zm15.04-14.59V48h-3.92V15.6h3.92zm19.55 15.43a6.22 6.22 0 0 0-2.38-2.05 6.7 6.7 0 0 0-2.86-.6c-2.07 0-3.66.75-4.77 2.23-1.12 1.48-1.68 3.6-1.68 6.33 0 1.46.13 2.7.38 3.74a7.29 7.29 0 0 0 1.1 2.56 4.35 4.35 0 0 0 1.78 1.45c.7.3 1.5.46 2.4.46 1.29 0 2.41-.3 3.36-.88a9.6 9.6 0 0 0 2.67-2.49V31.02zm3.91-15.43V48h-2.33c-.56 0-.9-.27-1.06-.81l-.35-2.71a12.13 12.13 0 0 1-3.25 2.77 8.28 8.28 0 0 1-4.23 1.06 7.31 7.31 0 0 1-6.14-2.9c-.73-.96-1.3-2.15-1.69-3.57a18.35 18.35 0 0 1 .07-9.48 11.29 11.29 0 0 1 1.89-3.7 8.7 8.7 0 0 1 7.06-3.34 7.96 7.96 0 0 1 6.12 2.62V15.59h3.91zM46.61 70.71V93H42.7V70.71h3.91zm.84-7c0 .39-.08.75-.24 1.09-.15.32-.35.61-.62.88-.25.25-.55.44-.9.59a2.67 2.67 0 0 1-2.16 0 2.9 2.9 0 0 1-1.45-1.47 2.67 2.67 0 0 1 0-2.16c.15-.35.35-.65.6-.9.25-.27.53-.47.85-.62a2.67 2.67 0 0 1 2.16 0c.35.15.65.35.9.62.27.25.47.55.62.9.16.34.24.7.24 1.08zm7.97 10.24c.49-.54 1-1.04 1.54-1.48a9.85 9.85 0 0 1 3.66-1.84 8.96 8.96 0 0 1 5.43.35c.94.4 1.72.97 2.33 1.71.63.74 1.11 1.62 1.43 2.67.32 1.04.49 2.19.49 3.45V93h-3.94V78.81c0-1.69-.4-3-1.17-3.92-.76-.93-1.93-1.4-3.5-1.4-1.15 0-2.24.27-3.25.83-1 .56-1.92 1.31-2.77 2.27V93h-3.94V70.71h2.35c.56 0 .9.28 1.04.82l.3 2.42zm57.7 3.3c0 2.36-.37 4.5-1.11 6.44a14.3 14.3 0 0 1-3.17 4.98c-1.37 1.37-3 2.45-4.93 3.2-1.9.76-4.02 1.13-6.33 1.13H85.8V61.47h11.77c2.31 0 4.42.39 6.33 1.15a13.8 13.8 0 0 1 8.1 8.18 17.75 17.75 0 0 1 1.12 6.45zm-4.37 0c0-1.94-.26-3.67-.8-5.2a10.94 10.94 0 0 0-2.23-3.87 9.57 9.57 0 0 0-3.53-2.42 12.23 12.23 0 0 0-4.61-.83h-7.5v24.62h7.5c1.7 0 3.24-.28 4.61-.84a9.7 9.7 0 0 0 3.53-2.4 10.94 10.94 0 0 0 2.24-3.87c.53-1.53.8-3.26.8-5.2zm19.8 5.72c-1.8.06-3.34.2-4.62.44-1.26.22-2.3.51-3.1.88-.8.36-1.37.8-1.74 1.3-.35.5-.53 1.05-.53 1.67 0 .58.1 1.1.3 1.52a3 3 0 0 0 .76 1.05c.34.27.73.46 1.17.6a6.13 6.13 0 0 0 1.45.17 7.28 7.28 0 0 0 3.5-.81 11.95 11.95 0 0 0 2.82-2.2v-4.62zm-12.65-9.11a12.73 12.73 0 0 1 3.98-2.66c1.43-.59 3-.88 4.73-.88 1.25 0 2.36.2 3.33.61a6.81 6.81 0 0 1 3.94 4.38c.33 1.04.5 2.19.5 3.43V93h-1.74a1.8 1.8 0 0 1-.88-.18c-.2-.13-.36-.38-.48-.74l-.44-2.12-1.72 1.46a9.48 9.48 0 0 1-3.74 1.7c-.69.15-1.46.23-2.3.23-.87 0-1.69-.12-2.45-.35a5.34 5.34 0 0 1-3.34-2.93 6.64 6.64 0 0 1-.49-2.64c0-.88.25-1.72.73-2.53a6.33 6.33 0 0 1 2.35-2.17c1.09-.63 2.5-1.15 4.25-1.54 1.75-.41 3.89-.65 6.42-.7v-1.75c0-1.73-.37-3.03-1.12-3.91-.75-.9-1.84-1.34-3.28-1.34-.97 0-1.78.12-2.44.37-.64.23-1.2.5-1.7.81l-1.23.82c-.33.23-.67.35-1 .35-.27 0-.5-.07-.69-.2a2.1 2.1 0 0 1-.48-.53l-.7-1.25zm27.67 19.5c-1.76 0-3.12-.5-4.07-1.48-.94-.98-1.41-2.4-1.41-4.25V74h-2.68a.9.9 0 0 1-.6-.2c-.16-.14-.24-.36-.24-.66v-1.56l3.65-.46.9-6.89c.05-.22.14-.4.29-.52a.88.88 0 0 1 .62-.22H142v7.67h6.44V74H142v13.38c0 .94.22 1.63.68 2.09.45.45 1.04.68 1.76.68a3.21 3.21 0 0 0 1.85-.53l.55-.35c.16-.12.3-.18.41-.18.2 0 .4.13.55.38l1.15 1.87a7.45 7.45 0 0 1-2.44 1.5 8.53 8.53 0 0 1-2.95.52zm19.68-10.4c-1.8.07-3.34.21-4.62.45-1.26.22-2.3.51-3.1.88-.8.36-1.37.8-1.74 1.3-.35.5-.53 1.05-.53 1.67 0 .58.1 1.1.3 1.52a2.9 2.9 0 0 0 .76 1.05c.34.27.73.46 1.17.6a6.13 6.13 0 0 0 1.45.17 7.3 7.3 0 0 0 3.5-.81 12.04 12.04 0 0 0 2.82-2.2v-4.62zm-12.65-9.1a12.72 12.72 0 0 1 3.99-2.66c1.42-.59 3-.88 4.72-.88 1.25 0 2.36.2 3.33.61a6.81 6.81 0 0 1 3.94 4.38c.33 1.04.5 2.19.5 3.43V93h-1.74a1.8 1.8 0 0 1-.88-.18c-.2-.13-.36-.38-.48-.74l-.44-2.12-1.72 1.46a9.48 9.48 0 0 1-3.74 1.7c-.69.15-1.46.23-2.3.23-.87 0-1.69-.12-2.45-.35a5.33 5.33 0 0 1-3.34-2.93 6.62 6.62 0 0 1-.49-2.64c0-.88.25-1.72.73-2.53a6.33 6.33 0 0 1 2.35-2.17c1.09-.63 2.5-1.15 4.25-1.54 1.74-.41 3.89-.65 6.42-.7v-1.75c0-1.73-.37-3.03-1.12-3.91-.75-.9-1.84-1.34-3.28-1.34-.97 0-1.78.12-2.44.37-.64.23-1.2.5-1.7.81l-1.22.82c-.34.23-.68.35-1.02.35-.26 0-.49-.07-.68-.2a1.88 1.88 0 0 1-.48-.53l-.7-1.25zM40.98 32.25c0 2.36-.38 4.53-1.12 6.51a14.26 14.26 0 0 1-8.1 8.4c-1.9.78-4.02 1.17-6.34 1.17-2.31 0-4.42-.39-6.33-1.17a14.31 14.31 0 0 1-8.08-8.4 18.29 18.29 0 0 1-1.12-6.51c0-2.36.38-4.53 1.12-6.5.75-1.97 1.8-3.67 3.17-5.1a14.32 14.32 0 0 1 4.9-3.34c1.92-.8 4.03-1.19 6.34-1.19 2.32 0 4.43.4 6.34 1.19 1.92.8 3.56 1.9 4.93 3.34a14.87 14.87 0 0 1 3.17 5.1 18.1 18.1 0 0 1 1.12 6.5zm-4.38 0c0-1.94-.26-3.68-.8-5.22a10.91 10.91 0 0 0-2.24-3.89 9.68 9.68 0 0 0-3.52-2.46 11.95 11.95 0 0 0-4.62-.86c-1.68 0-3.21.28-4.6.86a9.88 9.88 0 0 0-3.54 2.46 10.91 10.91 0 0 0-2.24 3.9c-.53 1.53-.8 3.27-.8 5.2 0 1.94.27 3.68.8 5.22a11.17 11.17 0 0 0 2.24 3.9 10.01 10.01 0 0 0 3.55 2.44c1.38.56 2.9.83 4.6.83s3.24-.27 4.61-.83a9.8 9.8 0 0 0 3.52-2.44 11.17 11.17 0 0 0 2.25-3.9c.53-1.54.8-3.28.8-5.21zm26.22-6.54V48H60.5c-.56 0-.9-.27-1.05-.81l-.31-2.4a12.45 12.45 0 0 1-3.26 2.6c-1.2.64-2.58.96-4.13.96-1.22 0-2.3-.2-3.24-.6a6.52 6.52 0 0 1-2.33-1.7 7.37 7.37 0 0 1-1.43-2.67c-.3-1.04-.46-2.2-.46-3.45V25.7h3.91v14.22c0 1.68.38 2.99 1.15 3.91.77.93 1.96 1.39 3.54 1.39 1.16 0 2.24-.27 3.23-.82a10.42 10.42 0 0 0 2.8-2.28V25.7h3.91zm8.61 4.47a9.94 9.94 0 0 1 2.6-3.56 5.64 5.64 0 0 1 3.76-1.3c.47 0 .92.05 1.34.15.44.1.83.27 1.17.49l-.3 2.92c-.09.37-.3.55-.66.55-.2 0-.5-.04-.9-.13a6.21 6.21 0 0 0-3.24.18 4.23 4.23 0 0 0-1.47.92c-.42.4-.81.9-1.17 1.5-.33.58-.64 1.26-.92 2.02V48H67.7V25.71h2.25c.42 0 .72.08.88.25.16.16.27.44.33.83l.26 3.39zm61.16-13.7L122.75 48h-3.82l-7.99-24.05a21.95 21.95 0 0 1-.42-1.58 38.36 38.36 0 0 1-.44 1.58L102.05 48h-3.83L88.4 16.47h3.54c.38 0 .7.1.95.29.26.2.43.43.5.73l6.52 21.9.28 1.28.29 1.46.3-1.46.38-1.27 7.41-21.91c.1-.25.26-.48.51-.69.27-.22.58-.33.95-.33h1.23c.38 0 .69.1.92.29a1.77 1.77 0 0 1 .53.73l7.4 21.9a28.4 28.4 0 0 1 .68 2.62 29.52 29.52 0 0 1 .52-2.61l6.54-21.91a1.31 1.31 0 0 1 .48-.7c.27-.21.58-.32.95-.32h3.32zm9.35 8.88c1.63 0 3.1.27 4.4.82a9.43 9.43 0 0 1 5.46 5.94c.5 1.4.74 2.98.74 4.73 0 1.76-.25 3.34-.74 4.75a9.43 9.43 0 0 1-5.46 5.92c-1.3.52-2.77.79-4.4.79-1.64 0-3.12-.27-4.44-.8a9.42 9.42 0 0 1-3.35-2.3c-.92-1-1.63-2.2-2.13-3.61-.49-1.41-.73-3-.73-4.75s.24-3.33.73-4.73c.5-1.43 1.2-2.64 2.13-3.63.93-1 2.04-1.77 3.35-2.31 1.32-.55 2.8-.82 4.44-.82zm0 19.89c2.2 0 3.84-.73 4.93-2.2 1.08-1.48 1.63-3.54 1.63-6.18 0-2.66-.55-4.72-1.63-6.2-1.09-1.49-2.73-2.23-4.93-2.23-1.12 0-2.09.2-2.93.57a5.71 5.71 0 0 0-2.06 1.65c-.55.72-.96 1.61-1.24 2.67-.26 1.04-.4 2.22-.4 3.54 0 2.64.55 4.7 1.64 6.18 1.1 1.47 2.76 2.2 4.99 2.2zm17.97-15.07a9.94 9.94 0 0 1 2.6-3.56 5.64 5.64 0 0 1 3.76-1.3c.47 0 .91.05 1.34.15.44.1.83.27 1.16.49l-.28 2.92c-.09.37-.31.55-.66.55-.2 0-.5-.04-.9-.13a6.2 6.2 0 0 0-3.24.18 4.23 4.23 0 0 0-1.47.92c-.43.4-.82.9-1.17 1.5a13.1 13.1 0 0 0-.92 2.02V48h-3.94V25.71h2.24c.43 0 .72.08.88.25.17.16.28.44.33.83l.27 3.39zm15.04-14.59V48h-3.92V15.6h3.92zm19.55 15.43a6.22 6.22 0 0 0-2.38-2.05 6.7 6.7 0 0 0-2.86-.6c-2.07 0-3.66.75-4.77 2.23-1.12 1.48-1.68 3.6-1.68 6.33 0 1.46.13 2.7.38 3.74a7.29 7.29 0 0 0 1.1 2.56 4.35 4.35 0 0 0 1.78 1.45c.7.3 1.5.46 2.4.46 1.29 0 2.41-.3 3.36-.88a9.6 9.6 0 0 0 2.67-2.49V31.02zm3.91-15.43V48h-2.33c-.56 0-.9-.27-1.06-.81l-.35-2.71a12.13 12.13 0 0 1-3.25 2.77 8.28 8.28 0 0 1-4.23 1.06 7.31 7.31 0 0 1-6.14-2.9c-.73-.96-1.3-2.15-1.69-3.57a18.35 18.35 0 0 1 .07-9.48 11.29 11.29 0 0 1 1.89-3.7 8.7 8.7 0 0 1 7.06-3.34 7.96 7.96 0 0 1 6.12 2.62V15.59h3.91zM46.61 70.71V93H42.7V70.71h3.91zm.84-7c0 .39-.08.75-.24 1.09-.15.32-.35.61-.62.88-.25.25-.55.44-.9.59a2.67 2.67 0 0 1-2.16 0 2.9 2.9 0 0 1-1.45-1.47 2.67 2.67 0 0 1 0-2.16c.15-.35.35-.65.6-.9.25-.27.53-.47.85-.62a2.67 2.67 0 0 1 2.16 0c.35.15.65.35.9.62.27.25.47.55.62.9.16.34.24.7.24 1.08zm7.97 10.24c.49-.54 1-1.04 1.54-1.48a9.85 9.85 0 0 1 3.66-1.84 8.96 8.96 0 0 1 5.43.35c.94.4 1.72.97 2.33 1.71.63.74 1.11 1.62 1.43 2.67.32 1.04.49 2.19.49 3.45V93h-3.94V78.81c0-1.69-.4-3-1.17-3.92-.76-.93-1.93-1.4-3.5-1.4-1.15 0-2.24.27-3.25.83-1 .56-1.92 1.31-2.77 2.27V93h-3.94V70.71h2.35c.56 0 .9.28 1.04.82l.3 2.42zm57.7 3.3c0 2.36-.37 4.5-1.11 6.44a14.3 14.3 0 0 1-3.17 4.98c-1.37 1.37-3 2.45-4.93 3.2-1.9.76-4.02 1.13-6.33 1.13H85.8V61.47h11.77c2.31 0 4.42.39 6.33 1.15a13.8 13.8 0 0 1 8.1 8.18 17.75 17.75 0 0 1 1.12 6.45zm-4.37 0c0-1.94-.26-3.67-.8-5.2a10.94 10.94 0 0 0-2.23-3.87 9.57 9.57 0 0 0-3.53-2.42 12.23 12.23 0 0 0-4.61-.83h-7.5v24.62h7.5c1.7 0 3.24-.28 4.61-.84a9.7 9.7 0 0 0 3.53-2.4 10.94 10.94 0 0 0 2.24-3.87c.53-1.53.8-3.26.8-5.2zm19.8 5.72c-1.8.06-3.34.2-4.62.44-1.26.22-2.3.51-3.1.88-.8.36-1.37.8-1.74 1.3-.35.5-.53 1.05-.53 1.67 0 .58.1 1.1.3 1.52a3 3 0 0 0 .76 1.05c.34.27.73.46 1.17.6a6.13 6.13 0 0 0 1.45.17 7.28 7.28 0 0 0 3.5-.81 11.95 11.95 0 0 0 2.82-2.2v-4.62zm-12.65-9.11a12.73 12.73 0 0 1 3.98-2.66c1.43-.59 3-.88 4.73-.88 1.25 0 2.36.2 3.33.61a6.81 6.81 0 0 1 3.94 4.38c.33 1.04.5 2.19.5 3.43V93h-1.74a1.8 1.8 0 0 1-.88-.18c-.2-.13-.36-.38-.48-.74l-.44-2.12-1.72 1.46a9.48 9.48 0 0 1-3.74 1.7c-.69.15-1.46.23-2.3.23-.87 0-1.69-.12-2.45-.35a5.34 5.34 0 0 1-3.34-2.93 6.64 6.64 0 0 1-.49-2.64c0-.88.25-1.72.73-2.53a6.33 6.33 0 0 1 2.35-2.17c1.09-.63 2.5-1.15 4.25-1.54 1.75-.41 3.89-.65 6.42-.7v-1.75c0-1.73-.37-3.03-1.12-3.91-.75-.9-1.84-1.34-3.28-1.34-.97 0-1.78.12-2.44.37-.64.23-1.2.5-1.7.81l-1.23.82c-.33.23-.67.35-1 .35-.27 0-.5-.07-.69-.2a2.1 2.1 0 0 1-.48-.53l-.7-1.25zm27.67 19.5c-1.76 0-3.12-.5-4.07-1.48-.94-.98-1.41-2.4-1.41-4.25V74h-2.68a.9.9 0 0 1-.6-.2c-.16-.14-.24-.36-.24-.66v-1.56l3.65-.46.9-6.89c.05-.22.14-.4.29-.52a.88.88 0 0 1 .62-.22H142v7.67h6.44V74H142v13.38c0 .94.22 1.63.68 2.09.45.45 1.04.68 1.76.68a3.21 3.21 0 0 0 1.85-.53l.55-.35c.16-.12.3-.18.41-.18.2 0 .4.13.55.38l1.15 1.87a7.45 7.45 0 0 1-2.44 1.5 8.53 8.53 0 0 1-2.95.52zm19.68-10.4c-1.8.07-3.34.21-4.62.45-1.26.22-2.3.51-3.1.88-.8.36-1.37.8-1.74 1.3-.35.5-.53 1.05-.53 1.67 0 .58.1 1.1.3 1.52a2.9 2.9 0 0 0 .76 1.05c.34.27.73.46 1.17.6a6.13 6.13 0 0 0 1.45.17 7.3 7.3 0 0 0 3.5-.81 12.04 12.04 0 0 0 2.82-2.2v-4.62zm-12.65-9.1a12.72 12.72 0 0 1 3.99-2.66c1.42-.59 3-.88 4.72-.88 1.25 0 2.36.2 3.33.61a6.81 6.81 0 0 1 3.94 4.38c.33 1.04.5 2.19.5 3.43V93h-1.74a1.8 1.8 0 0 1-.88-.18c-.2-.13-.36-.38-.48-.74l-.44-2.12-1.72 1.46a9.48 9.48 0 0 1-3.74 1.7c-.69.15-1.46.23-2.3.23-.87 0-1.69-.12-2.45-.35a5.33 5.33 0 0 1-3.34-2.93 6.62 6.62 0 0 1-.49-2.64c0-.88.25-1.72.73-2.53a6.33 6.33 0 0 1 2.35-2.17c1.09-.63 2.5-1.15 4.25-1.54 1.74-.41 3.89-.65 6.42-.7v-1.75c0-1.73-.37-3.03-1.12-3.91-.75-.9-1.84-1.34-3.28-1.34-.97 0-1.78.12-2.44.37-.64.23-1.2.5-1.7.81l-1.22.82c-.34.23-.68.35-1.02.35-.26 0-.49-.07-.68-.2a1.88 1.88 0 0 1-.48-.53l-.7-1.25zM40.98 32.25c0 2.36-.38 4.53-1.12 6.51a14.26 14.26 0 0 1-8.1 8.4c-1.9.78-4.02 1.17-6.34 1.17-2.31 0-4.42-.39-6.33-1.17a14.31 14.31 0 0 1-8.08-8.4 18.29 18.29 0 0 1-1.12-6.51c0-2.36.38-4.53 1.12-6.5.75-1.97 1.8-3.67 3.17-5.1a14.32 14.32 0 0 1 4.9-3.34c1.92-.8 4.03-1.19 6.34-1.19 2.32 0 4.43.4 6.34 1.19 1.92.8 3.56 1.9 4.93 3.34a14.87 14.87 0 0 1 3.17 5.1 18.1 18.1 0 0 1 1.12 6.5zm-4.38 0c0-1.94-.26-3.68-.8-5.22a10.91 10.91 0 0 0-2.24-3.89 9.68 9.68 0 0 0-3.52-2.46 11.95 11.95 0 0 0-4.62-.86c-1.68 0-3.21.28-4.6.86a9.88 9.88 0 0 0-3.54 2.46 10.91 10.91 0 0 0-2.24 3.9c-.53 1.53-.8 3.27-.8 5.2 0 1.94.27 3.68.8 5.22a11.17 11.17 0 0 0 2.24 3.9 10.01 10.01 0 0 0 3.55 2.44c1.38.56 2.9.83 4.6.83s3.24-.27 4.61-.83a9.8 9.8 0 0 0 3.52-2.44 11.17 11.17 0 0 0 2.25-3.9c.53-1.54.8-3.28.8-5.21zm26.22-6.54V48H60.5c-.56 0-.9-.27-1.05-.81l-.31-2.4a12.45 12.45 0 0 1-3.26 2.6c-1.2.64-2.58.96-4.13.96-1.22 0-2.3-.2-3.24-.6a6.52 6.52 0 0 1-2.33-1.7 7.37 7.37 0 0 1-1.43-2.67c-.3-1.04-.46-2.2-.46-3.45V25.7h3.91v14.22c0 1.68.38 2.99 1.15 3.91.77.93 1.96 1.39 3.54 1.39 1.16 0 2.24-.27 3.23-.82a10.42 10.42 0 0 0 2.8-2.28V25.7h3.91zm8.61 4.47a9.94 9.94 0 0 1 2.6-3.56 5.64 5.64 0 0 1 3.76-1.3c.47 0 .92.05 1.34.15.44.1.83.27 1.17.49l-.3 2.92c-.09.37-.3.55-.66.55-.2 0-.5-.04-.9-.13a6.21 6.21 0 0 0-3.24.18 4.23 4.23 0 0 0-1.47.92c-.42.4-.81.9-1.17 1.5-.33.58-.64 1.26-.92 2.02V48H67.7V25.71h2.25c.42 0 .72.08.88.25.16.16.27.44.33.83l.26 3.39zm61.16-13.7L122.75 48h-3.82l-7.99-24.05a21.95 21.95 0 0 1-.42-1.58 38.36 38.36 0 0 1-.44 1.58L102.05 48h-3.83L88.4 16.47h3.54c.38 0 .7.1.95.29.26.2.43.43.5.73l6.52 21.9.28 1.28.29 1.46.3-1.46.38-1.27 7.41-21.91c.1-.25.26-.48.51-.69.27-.22.58-.33.95-.33h1.23c.38 0 .69.1.92.29a1.77 1.77 0 0 1 .53.73l7.4 21.9a28.4 28.4 0 0 1 .68 2.62 29.52 29.52 0 0 1 .52-2.61l6.54-21.91a1.31 1.31 0 0 1 .48-.7c.27-.21.58-.32.95-.32h3.32zm9.35 8.88c1.63 0 3.1.27 4.4.82a9.43 9.43 0 0 1 5.46 5.94c.5 1.4.74 2.98.74 4.73 0 1.76-.25 3.34-.74 4.75a9.43 9.43 0 0 1-5.46 5.92c-1.3.52-2.77.79-4.4.79-1.64 0-3.12-.27-4.44-.8a9.42 9.42 0 0 1-3.35-2.3c-.92-1-1.63-2.2-2.13-3.61-.49-1.41-.73-3-.73-4.75s.24-3.33.73-4.73c.5-1.43 1.2-2.64 2.13-3.63.93-1 2.04-1.77 3.35-2.31 1.32-.55 2.8-.82 4.44-.82zm0 19.89c2.2 0 3.84-.73 4.93-2.2 1.08-1.48 1.63-3.54 1.63-6.18 0-2.66-.55-4.72-1.63-6.2-1.09-1.49-2.73-2.23-4.93-2.23-1.12 0-2.09.2-2.93.57a5.71 5.71 0 0 0-2.06 1.65c-.55.72-.96 1.61-1.24 2.67-.26 1.04-.4 2.22-.4 3.54 0 2.64.55 4.7 1.64 6.18 1.1 1.47 2.76 2.2 4.99 2.2zm17.97-15.07a9.94 9.94 0 0 1 2.6-3.56 5.64 5.64 0 0 1 3.76-1.3c.47 0 .91.05 1.34.15.44.1.83.27 1.16.49l-.28 2.92c-.09.37-.31.55-.66.55-.2 0-.5-.04-.9-.13a6.2 6.2 0 0 0-3.24.18 4.23 4.23 0 0 0-1.47.92c-.43.4-.82.9-1.17 1.5a13.1 13.1 0 0 0-.92 2.02V48h-3.94V25.71h2.24c.43 0 .72.08.88.25.17.16.28.44.33.83l.27 3.39zm15.04-14.59V48h-3.92V15.6h3.92zm19.55 15.43a6.22 6.22 0 0 0-2.38-2.05 6.7 6.7 0 0 0-2.86-.6c-2.07 0-3.66.75-4.77 2.23-1.12 1.48-1.68 3.6-1.68 6.33 0 1.46.13 2.7.38 3.74a7.29 7.29 0 0 0 1.1 2.56 4.35 4.35 0 0 0 1.78 1.45c.7.3 1.5.46 2.4.46 1.29 0 2.41-.3 3.36-.88a9.6 9.6 0 0 0 2.67-2.49V31.02zm3.91-15.43V48h-2.33c-.56 0-.9-.27-1.06-.81l-.35-2.71a12.13 12.13 0 0 1-3.25 2.77 8.28 8.28 0 0 1-4.23 1.06 7.31 7.31 0 0 1-6.14-2.9c-.73-.96-1.3-2.15-1.69-3.57a18.35 18.35 0 0 1 .07-9.48 11.29 11.29 0 0 1 1.89-3.7 8.7 8.7 0 0 1 7.06-3.34 7.96 7.96 0 0 1 6.12 2.62V15.59h3.91zM46.61 70.71V93H42.7V70.71h3.91zm.84-7c0 .39-.08.75-.24 1.09-.15.32-.35.61-.62.88-.25.25-.55.44-.9.59a2.67 2.67 0 0 1-2.16 0 2.9 2.9 0 0 1-1.45-1.47 2.67 2.67 0 0 1 0-2.16c.15-.35.35-.65.6-.9.25-.27.53-.47.85-.62a2.67 2.67 0 0 1 2.16 0c.35.15.65.35.9.62.27.25.47.55.62.9.16.34.24.7.24 1.08zm7.97 10.24c.49-.54 1-1.04 1.54-1.48a9.85 9.85 0 0 1 3.66-1.84 8.96 8.96 0 0 1 5.43.35c.94.4 1.72.97 2.33 1.71.63.74 1.11 1.62 1.43 2.67.32 1.04.49 2.19.49 3.45V93h-3.94V78.81c0-1.69-.4-3-1.17-3.92-.76-.93-1.93-1.4-3.5-1.4-1.15 0-2.24.27-3.25.83-1 .56-1.92 1.31-2.77 2.27V93h-3.94V70.71h2.35c.56 0 .9.28 1.04.82l.3 2.42zm57.7 3.3c0 2.36-.37 4.5-1.11 6.44a14.3 14.3 0 0 1-3.17 4.98c-1.37 1.37-3 2.45-4.93 3.2-1.9.76-4.02 1.13-6.33 1.13H85.8V61.47h11.77c2.31 0 4.42.39 6.33 1.15a13.8 13.8 0 0 1 8.1 8.18 17.75 17.75 0 0 1 1.12 6.45zm-4.37 0c0-1.94-.26-3.67-.8-5.2a10.94 10.94 0 0 0-2.23-3.87 9.57 9.57 0 0 0-3.53-2.42 12.23 12.23 0 0 0-4.61-.83h-7.5v24.62h7.5c1.7 0 3.24-.28 4.61-.84a9.7 9.7 0 0 0 3.53-2.4 10.94 10.94 0 0 0 2.24-3.87c.53-1.53.8-3.26.8-5.2zm19.8 5.72c-1.8.06-3.34.2-4.62.44-1.26.22-2.3.51-3.1.88-.8.36-1.37.8-1.74 1.3-.35.5-.53 1.05-.53 1.67 0 .58.1 1.1.3 1.52a3 3 0 0 0 .76 1.05c.34.27.73.46 1.17.6a6.13 6.13 0 0 0 1.45.17 7.28 7.28 0 0 0 3.5-.81 11.95 11.95 0 0 0 2.82-2.2v-4.62zm-12.65-9.11a12.73 12.73 0 0 1 3.98-2.66c1.43-.59 3-.88 4.73-.88 1.25 0 2.36.2 3.33.61a6.81 6.81 0 0 1 3.94 4.38c.33 1.04.5 2.19.5 3.43V93h-1.74a1.8 1.8 0 0 1-.88-.18c-.2-.13-.36-.38-.48-.74l-.44-2.12-1.72 1.46a9.48 9.48 0 0 1-3.74 1.7c-.69.15-1.46.23-2.3.23-.87 0-1.69-.12-2.45-.35a5.34 5.34 0 0 1-3.34-2.93 6.64 6.64 0 0 1-.49-2.64c0-.88.25-1.72.73-2.53a6.33 6.33 0 0 1 2.35-2.17c1.09-.63 2.5-1.15 4.25-1.54 1.75-.41 3.89-.65 6.42-.7v-1.75c0-1.73-.37-3.03-1.12-3.91-.75-.9-1.84-1.34-3.28-1.34-.97 0-1.78.12-2.44.37-.64.23-1.2.5-1.7.81l-1.23.82c-.33.23-.67.35-1 .35-.27 0-.5-.07-.69-.2a2.1 2.1 0 0 1-.48-.53l-.7-1.25zm27.67 19.5c-1.76 0-3.12-.5-4.07-1.48-.94-.98-1.41-2.4-1.41-4.25V74h-2.68a.9.9 0 0 1-.6-.2c-.16-.14-.24-.36-.24-.66v-1.56l3.65-.46.9-6.89c.05-.22.14-.4.29-.52a.88.88 0 0 1 .62-.22H142v7.67h6.44V74H142v13.38c0 .94.22 1.63.68 2.09.45.45 1.04.68 1.76.68a3.21 3.21 0 0 0 1.85-.53l.55-.35c.16-.12.3-.18.41-.18.2 0 .4.13.55.38l1.15 1.87a7.45 7.45 0 0 1-2.44 1.5 8.53 8.53 0 0 1-2.95.52zm19.68-10.4c-1.8.07-3.34.21-4.62.45-1.26.22-2.3.51-3.1.88-.8.36-1.37.8-1.74 1.3-.35.5-.53 1.05-.53 1.67 0 .58.1 1.1.3 1.52a2.9 2.9 0 0 0 .76 1.05c.34.27.73.46 1.17.6a6.13 6.13 0 0 0 1.45.17 7.3 7.3 0 0 0 3.5-.81 12.04 12.04 0 0 0 2.82-2.2v-4.62zm-12.65-9.1a12.72 12.72 0 0 1 3.99-2.66c1.42-.59 3-.88 4.72-.88 1.25 0 2.36.2 3.33.61a6.81 6.81 0 0 1 3.94 4.38c.33 1.04.5 2.19.5 3.43V93h-1.74a1.8 1.8 0 0 1-.88-.18c-.2-.13-.36-.38-.48-.74l-.44-2.12-1.72 1.46a9.48 9.48 0 0 1-3.74 1.7c-.69.15-1.46.23-2.3.23-.87 0-1.69-.12-2.45-.35a5.33 5.33 0 0 1-3.34-2.93 6.62 6.62 0 0 1-.49-2.64c0-.88.25-1.72.73-2.53a6.33 6.33 0 0 1 2.35-2.17c1.09-.63 2.5-1.15 4.25-1.54 1.74-.41 3.89-.65 6.42-.7v-1.75c0-1.73-.37-3.03-1.12-3.91-.75-.9-1.84-1.34-3.28-1.34-.97 0-1.78.12-2.44.37-.64.23-1.2.5-1.7.81l-1.22.82c-.34.23-.68.35-1.02.35-.26 0-.49-.07-.68-.2a1.88 1.88 0 0 1-.48-.53l-.7-1.25z"
    fill="#fff"
  />
  <path fill="#D42B21" d="M0 106.79h210V120H0z" />
</g>
<defs>
  <clipPath id="clip0"><path fill="#fff" d="M0 0h210v120H0z" /></clipPath>
</defs>
</svg></g><a href="https://ourworldindata.org/grapher/projected-population-by-country?tab=chart&amp;time=500..2023&amp;country=~JPN" style="font-family:&quot;Playfair Display&quot;, Georgia, &quot;Times New Roman&quot;, serif" target="_blank" rel="noopener"><text font-size="25.20" x="15.0" y="35.2" fill="#555"><tspan x="15" y="35.160000000000004">Population, 500 to 2023</tspan></text></a><text font-size="14.40" x="15.0" y="55.7" fill="#666"><tspan x="15" y="55.72">Historical estimates of population, combined with the projected population to 2100 based on the UN&#x27;s medium</tspan><tspan x="15" y="73">variant scenario.</tspan></text></g><g class="LineChart"><defs><clipPath id="boundsClip-63"><rect x="87.598" y="82.2" width="840" height="460.6"></rect></clipPath></defs><g class="DualAxisView"><g class="HorizontalAxis"><line x1="97.6" y1="511.6" x2="97.6" y2="516.6" stroke="#999"></line><line x1="763" y1="511.6" x2="763" y2="516.6" stroke="#999"></line><line x1="228.7" y1="511.6" x2="228.7" y2="516.6" stroke="#999"></line><line x1="316.1" y1="511.6" x2="316.1" y2="516.6" stroke="#999"></line><line x1="403.4" y1="511.6" x2="403.4" y2="516.6" stroke="#999"></line><line x1="490.8" y1="511.6" x2="490.8" y2="516.6" stroke="#999"></line><line x1="578.2" y1="511.6" x2="578.2" y2="516.6" stroke="#999"></line><line x1="665.6" y1="511.6" x2="665.6" y2="516.6" stroke="#999"></line><text x="97.598" y="532.8000000000001" fill="#666" text-anchor="start" font-size="16.2">500</text><text x="763.01" y="532.8000000000001" fill="#666" text-anchor="end" font-size="16.2">2023</text><text x="228.7" y="532.8000000000001" fill="#666" text-anchor="middle" font-size="16.2">800</text><text x="316.1" y="532.8000000000001" fill="#666" text-anchor="middle" font-size="16.2">1000</text><text x="403.4" y="532.8000000000001" fill="#666" text-anchor="middle" font-size="16.2">1200</text><text x="490.8" y="532.8000000000001" fill="#666" text-anchor="middle" font-size="16.2">1400</text><text x="578.2" y="532.8000000000001" fill="#666" text-anchor="middle" font-size="16.2">1600</text><text x="665.6" y="532.8000000000001" fill="#666" text-anchor="middle" font-size="16.2">1800</text></g><g class="VerticalAxis"><text x="92.60" y="511.6" dy=".32em" text-anchor="end" fill="#666" font-size="16.2">0</text><text x="92.60" y="446.4" dy=".32em" text-anchor="end" fill="#666" font-size="16.2">20 million</text><text x="92.60" y="381.1" dy=".32em" text-anchor="end" fill="#666" font-size="16.2">40 million</text><text x="92.60" y="315.9" dy=".32em" text-anchor="end" fill="#666" font-size="16.2">60 million</text><text x="92.60" y="250.6" dy=".32em" text-anchor="end" fill="#666" font-size="16.2">80 million</text><text x="92.60" y="185.4" dy=".32em" text-anchor="end" fill="#666" font-size="16.2">100 million</text><text x="92.60" y="120.1" dy=".32em" text-anchor="end" fill="#666" font-size="16.2">120 million</text></g><g class="AxisGridLines horizontalLines"><line x1="97.60" y1="511.6" x2="763.01" y2="511.6" stroke="#999"></line><line x1="97.60" y1="446.4" x2="763.01" y2="446.4" stroke="#ddd" stroke-dasharray="3,2"></line><line x1="97.60" y1="381.1" x2="763.01" y2="381.1" stroke="#ddd" stroke-dasharray="3,2"></line><line x1="97.60" y1="315.9" x2="763.01" y2="315.9" stroke="#ddd" stroke-dasharray="3,2"></line><line x1="97.60" y1="250.6" x2="763.01" y2="250.6" stroke="#ddd" stroke-dasharray="3,2"></line><line x1="97.60" y1="185.4" x2="763.01" y2="185.4" stroke="#ddd" stroke-dasharray="3,2"></line><line x1="97.60" y1="120.1" x2="763.01" y2="120.1" stroke="#ddd" stroke-dasharray="3,2"></line></g></g><g clip-path="url(#boundsClip-63)"><g class="LineLabels" style="cursor:default"><g class="legendMark"><rect x="763.01" y="96.75" width="71.99000000000001" height="13.5" fill="#fff" opacity="0"></rect><text font-size="13.50" font-weight="400" x="767.0" y="107.5" fill="#cd2285"><tspan x="767.01" y="107.55">Japan</tspan></text></g></g><g class="Lines"><rect x="98" y="92" width="665" height="419" fill="rgba(255,255,255,0)" opacity="0"></rect><g><path stroke-linecap="round" stroke-linejoin="round" stroke="#ddd" d="M97.6 504.3L141.3 501.8L185 496.9L228.7 493.7L272.4 490.7L316.1 492L359.7 491.4L403.4 490.7L447.1 487.8L490.8 481.3L534.5 471.5L578.2 456.1L621.9 424.5L626.3 417L630.6 417L635 417L639.4 417L643.7 417L648.1 417.6L652.5 418.3L656.8 418.9L661.2 419.6L665.6 420.3L666 419.8L666.5 419.3L666.9 418.8L667.3 418.4L667.8 417.9L668.2 417.4L668.6 416.9L669.1 416.5L669.5 416L669.9 415.5L670.4 415L670.8 414.5L671.3 414L671.7 413.5L672.1 413L672.6 412.5L673 412L673.4 411.5L673.9 411.1L674.3 410.7L674.8 410.4L675.2 410.3L675.6 410.1L676.1 410L676.5 409.9L676.9 409.8L677.4 409.7L677.8 409.6L678.2 409.5L678.7 409.4L679.1 409.3L679.6 409.2L680 409.1L680.4 409L680.9 408.8L681.3 408.7L681.7 408.6L682.2 408.5L682.6 408.4L683.1 408.3L683.5 408.2L683.9 408.1L684.4 408L684.8 407.9L685.2 407.8L685.7 407.6L686.1 407.5L686.6 407.4L687 407.3L687.4 407L687.9 406.8L688.3 406.5L688.7 406.1L689.2 405.7L689.6 405.4L690 405L690.5 404.6L690.9 404.2L691.4 403.9L691.8 403.5L692.2 403.1L692.7 402.7L693.1 402.3L693.5 401.9L694 401.6L694.4 401.2L694.9 400.8L695.3 400.4L695.7 399.9L696.2 399.4L696.6 398.8L697 398.1L697.5 397.4L697.9 396.7L698.3 395.9L698.8 395.2L699.2 394.4L699.7 393.6L700.1 392.8L700.5 392L701 391L701.4 390.1L701.8 389.1L702.3 388L702.7 387L703.2 386L703.6 384.9L704 383.8L704.5 382.7L704.9 381.6L705.3 380.4L705.8 379.2L706.2 378L706.6 376.7L707.1 375.4L707.5 374.1L708 372.8L708.4 371.5L708.8 370.1L709.3 368.7L709.7 367.2L710.1 365.6L710.6 363.9L711 362.2L711.5 360.5L711.9 358.7L712.3 357L712.8 355.2L713.2 353.4L713.6 351.6L714.1 349.7L714.5 347.8L715 345.8L715.4 343.8L715.8 341.9L716.3 339.8L716.7 337.8L717.1 335.7L717.6 333.5L718 331.2L718.4 328.8L718.9 326.3L719.3 323.7L719.8 321.1L720.2 318.4L720.6 315.6L721.1 312.9L721.5 310.1L721.9 307.3L722.4 304.5L722.8 301.7L723.3 299L723.7 296.3L724.1 293.5L724.6 290.7L725 287.8L725.4 284.9L725.9 282L726.3 279L726.7 275.9L727.2 272.7L727.6 269.5L728.1 266.1L728.5 262.7L728.9 259.2L729.4 255.7L729.8 252.1L730.2 248.5L730.7 244.9L731.1 241.5L731.6 236.5L732 232.1L732.4 228.2L732.9 224.6L733.3 221.2L733.7 218L734.2 214.9L734.6 211.9L735 208.9L735.5 206L735.9 203.1L736.4 200.2L736.8 197.1L737.2 193.9L737.7 190.4L738.1 186.7L738.5 182.7L739 178.4L739.4 174L739.9 169.3L740.3 164.4L740.7 159.3L741.2 154.3L741.6 149.4L742 144.9L742.5 140.7L742.9 137L743.3 133.6L743.8 130.3L744.2 127.2L744.7 124.2L745.1 121.4L745.5 118.7L746 116.2L746.4 114L746.8 111.9L747.3 110.1L747.7 108.4L748.2 106.9L748.6 105.4L749 104L749.5 102.7L749.9 101.5L750.3 100.4L750.8 99.3L751.2 98.4L751.7 97.6L752.1 96.9L752.5 96.2L753 95.6L753.4 94.9L753.8 94.4L754.3 93.8L754.7 93.3L755.1 92.9L755.6 92.6L756 92.4L756.5 92.3L756.9 92.2L757.3 92.2L757.8 92.4L758.2 92.6L758.6 93L759.1 93.5L759.5 94.1L760 94.8L760.4 95.6L760.8 96.6L761.3 97.7L761.7 99L762.1 100.4L762.6 101.9L763 103.5" fill="none" stroke-width="1"></path></g><g><path fill="none" stroke-linecap="butt" stroke-linejoin="round" stroke="#fff" stroke-width="2.5" d="M97.6 504.3L141.3 501.8L185 496.9L228.7 493.7L272.4 490.7L316.1 492L359.7 491.4L403.4 490.7L447.1 487.8L490.8 481.3L534.5 471.5L578.2 456.1L621.9 424.5L626.3 417L630.6 417L635 417L639.4 417L643.7 417L648.1 417.6L652.5 418.3L656.8 418.9L661.2 419.6L665.6 420.3L666 419.8L666.5 419.3L666.9 418.8L667.3 418.4L667.8 417.9L668.2 417.4L668.6 416.9L669.1 416.5L669.5 416L669.9 415.5L670.4 415L670.8 414.5L671.3 414L671.7 413.5L672.1 413L672.6 412.5L673 412L673.4 411.5L673.9 411.1L674.3 410.7L674.8 410.4L675.2 410.3L675.6 410.1L676.1 410L676.5 409.9L676.9 409.8L677.4 409.7L677.8 409.6L678.2 409.5L678.7 409.4L679.1 409.3L679.6 409.2L680 409.1L680.4 409L680.9 408.8L681.3 408.7L681.7 408.6L682.2 408.5L682.6 408.4L683.1 408.3L683.5 408.2L683.9 408.1L684.4 408L684.8 407.9L685.2 407.8L685.7 407.6L686.1 407.5L686.6 407.4L687 407.3L687.4 407L687.9 406.8L688.3 406.5L688.7 406.1L689.2 405.7L689.6 405.4L690 405L690.5 404.6L690.9 404.2L691.4 403.9L691.8 403.5L692.2 403.1L692.7 402.7L693.1 402.3L693.5 401.9L694 401.6L694.4 401.2L694.9 400.8L695.3 400.4L695.7 399.9L696.2 399.4L696.6 398.8L697 398.1L697.5 397.4L697.9 396.7L698.3 395.9L698.8 395.2L699.2 394.4L699.7 393.6L700.1 392.8L700.5 392L701 391L701.4 390.1L701.8 389.1L702.3 388L702.7 387L703.2 386L703.6 384.9L704 383.8L704.5 382.7L704.9 381.6L705.3 380.4L705.8 379.2L706.2 378L706.6 376.7L707.1 375.4L707.5 374.1L708 372.8L708.4 371.5L708.8 370.1L709.3 368.7L709.7 367.2L710.1 365.6L710.6 363.9L711 362.2L711.5 360.5L711.9 358.7L712.3 357L712.8 355.2L713.2 353.4L713.6 351.6L714.1 349.7L714.5 347.8L715 345.8L715.4 343.8L715.8 341.9L716.3 339.8L716.7 337.8L717.1 335.7L717.6 333.5L718 331.2L718.4 328.8L718.9 326.3L719.3 323.7L719.8 321.1L720.2 318.4L720.6 315.6L721.1 312.9L721.5 310.1L721.9 307.3L722.4 304.5L722.8 301.7L723.3 299L723.7 296.3L724.1 293.5L724.6 290.7L725 287.8L725.4 284.9L725.9 282L726.3 279L726.7 275.9L727.2 272.7L727.6 269.5L728.1 266.1L728.5 262.7L728.9 259.2L729.4 255.7L729.8 252.1L730.2 248.5L730.7 244.9L731.1 241.5L731.6 236.5L732 232.1L732.4 228.2L732.9 224.6L733.3 221.2L733.7 218L734.2 214.9L734.6 211.9L735 208.9L735.5 206L735.9 203.1L736.4 200.2L736.8 197.1L737.2 193.9L737.7 190.4L738.1 186.7L738.5 182.7L739 178.4L739.4 174L739.9 169.3L740.3 164.4L740.7 159.3L741.2 154.3L741.6 149.4L742 144.9L742.5 140.7L742.9 137L743.3 133.6L743.8 130.3L744.2 127.2L744.7 124.2L745.1 121.4L745.5 118.7L746 116.2L746.4 114L746.8 111.9L747.3 110.1L747.7 108.4L748.2 106.9L748.6 105.4L749 104L749.5 102.7L749.9 101.5L750.3 100.4L750.8 99.3L751.2 98.4L751.7 97.6L752.1 96.9L752.5 96.2L753 95.6L753.4 94.9L753.8 94.4L754.3 93.8L754.7 93.3L755.1 92.9L755.6 92.6L756 92.4L756.5 92.3L756.9 92.2L757.3 92.2L757.8 92.4L758.2 92.6L758.6 93L759.1 93.5L759.5 94.1L760 94.8L760.4 95.6L760.8 96.6L761.3 97.7L761.7 99L762.1 100.4L762.6 101.9L763 103.5"></path><polyline points="97.60,504.30 141.30,501.80 185.00,496.90 228.70,493.70 272.40,490.70 316.10,492.00 359.70,491.40 403.40,490.70 447.10,487.80 490.80,481.30 534.50,471.50 578.20,456.10 621.90,424.50 626.30,417.00 630.60,417.00 635.00,417.00 639.40,417.00 643.70,417.00 648.10,417.60 652.50,418.30 656.80,418.90 661.20,419.60 665.60,420.30 666.00,419.80 666.50,419.30 666.90,418.80 667.30,418.40 667.80,417.90 668.20,417.40 668.60,416.90 669.10,416.50 669.50,416.00 669.90,415.50 670.40,415.00 670.80,414.50 671.30,414.00 671.70,413.50 672.10,413.00 672.60,412.50 673.00,412.00 673.40,411.50 673.90,411.10 674.30,410.70 674.80,410.40 675.20,410.30 675.60,410.10 676.10,410.00 676.50,409.90 676.90,409.80 677.40,409.70 677.80,409.60 678.20,409.50 678.70,409.40 679.10,409.30 679.60,409.20 680.00,409.10 680.40,409.00 680.90,408.80 681.30,408.70 681.70,408.60 682.20,408.50 682.60,408.40 683.10,408.30 683.50,408.20 683.90,408.10 684.40,408.00 684.80,407.90 685.20,407.80 685.70,407.60 686.10,407.50 686.60,407.40 687.00,407.30 687.40,407.00 687.90,406.80 688.30,406.50 688.70,406.10 689.20,405.70 689.60,405.40 690.00,405.00 690.50,404.60 690.90,404.20 691.40,403.90 691.80,403.50 692.20,403.10 692.70,402.70 693.10,402.30 693.50,401.90 694.00,401.60 694.40,401.20 694.90,400.80 695.30,400.40 695.70,399.90 696.20,399.40 696.60,398.80 697.00,398.10 697.50,397.40 697.90,396.70 698.30,395.90 698.80,395.20 699.20,394.40 699.70,393.60 700.10,392.80 700.50,392.00 701.00,391.00 701.40,390.10 701.80,389.10 702.30,388.00 702.70,387.00 703.20,386.00 703.60,384.90 704.00,383.80 704.50,382.70 704.90,381.60 705.30,380.40 705.80,379.20 706.20,378.00 706.60,376.70 707.10,375.40 707.50,374.10 708.00,372.80 708.40,371.50 708.80,370.10 709.30,368.70 709.70,367.20 710.10,365.60 710.60,363.90 711.00,362.20 711.50,360.50 711.90,358.70 712.30,357.00 712.80,355.20 713.20,353.40 713.60,351.60 714.10,349.70 714.50,347.80 715.00,345.80 715.40,343.80 715.80,341.90 716.30,339.80 716.70,337.80 717.10,335.70 717.60,333.50 718.00,331.20 718.40,328.80 718.90,326.30 719.30,323.70 719.80,321.10 720.20,318.40 720.60,315.60 721.10,312.90 721.50,310.10 721.90,307.30 722.40,304.50 722.80,301.70 723.30,299.00 723.70,296.30 724.10,293.50 724.60,290.70 725.00,287.80 725.40,284.90 725.90,282.00 726.30,279.00 726.70,275.90 727.20,272.70 727.60,269.50 728.10,266.10 728.50,262.70 728.90,259.20 729.40,255.70 729.80,252.10 730.20,248.50 730.70,244.90 731.10,241.50 731.60,236.50 732.00,232.10 732.40,228.20 732.90,224.60 733.30,221.20 733.70,218.00 734.20,214.90 734.60,211.90 735.00,208.90 735.50,206.00 735.90,203.10 736.40,200.20 736.80,197.10 737.20,193.90 737.70,190.40 738.10,186.70 738.50,182.70 739.00,178.40 739.40,174.00 739.90,169.30 740.30,164.40 740.70,159.30 741.20,154.30 741.60,149.40 742.00,144.90 742.50,140.70 742.90,137.00 743.30,133.60 743.80,130.30 744.20,127.20 744.70,124.20 745.10,121.40 745.50,118.70 746.00,116.20 746.40,114.00 746.80,111.90 747.30,110.10 747.70,108.40 748.20,106.90 748.60,105.40 749.00,104.00 749.50,102.70 749.90,101.50 750.30,100.40 750.80,99.30 751.20,98.40 751.70,97.60 752.10,96.90 752.50,96.20 753.00,95.60 753.40,94.90 753.80,94.40 754.30,93.80 754.70,93.30 755.10,92.90 755.60,92.60 756.00,92.40 756.50,92.30 756.90,92.20 757.30,92.20 757.80,92.40 758.20,92.60 758.60,93.00 759.10,93.50 759.50,94.10 760.00,94.80 760.40,95.60 760.80,96.60 761.30,97.70 761.70,99.00 762.10,100.40 762.60,101.90 763.00,103.50" stroke-linejoin="round" stroke-width="1.5" stroke="#CD2285" fill="none" stroke-linecap="butt"></polyline><g><circle cx="97.6" cy="504.3" r="1.8" fill="#CD2285"></circle><circle cx="141.3" cy="501.8" r="1.8" fill="#CD2285"></circle><circle cx="185" cy="496.9" r="1.8" fill="#CD2285"></circle><circle cx="228.7" cy="493.7" r="1.8" fill="#CD2285"></circle><circle cx="272.4" cy="490.7" r="1.8" fill="#CD2285"></circle><circle cx="316.1" cy="492" r="1.8" fill="#CD2285"></circle><circle cx="359.7" cy="491.4" r="1.8" fill="#CD2285"></circle><circle cx="403.4" cy="490.7" r="1.8" fill="#CD2285"></circle><circle cx="447.1" cy="487.8" r="1.8" fill="#CD2285"></circle><circle cx="490.8" cy="481.3" r="1.8" fill="#CD2285"></circle><circle cx="534.5" cy="471.5" r="1.8" fill="#CD2285"></circle><circle cx="578.2" cy="456.1" r="1.8" fill="#CD2285"></circle><circle cx="621.9" cy="424.5" r="1.8" fill="#CD2285"></circle><circle cx="626.3" cy="417" r="1.8" fill="#CD2285"></circle><circle cx="630.6" cy="417" r="1.8" fill="#CD2285"></circle><circle cx="635" cy="417" r="1.8" fill="#CD2285"></circle><circle cx="639.4" cy="417" r="1.8" fill="#CD2285"></circle><circle cx="643.7" cy="417" r="1.8" fill="#CD2285"></circle><circle cx="648.1" cy="417.6" r="1.8" fill="#CD2285"></circle><circle cx="652.5" cy="418.3" r="1.8" fill="#CD2285"></circle><circle cx="656.8" cy="418.9" r="1.8" fill="#CD2285"></circle><circle cx="661.2" cy="419.6" r="1.8" fill="#CD2285"></circle><circle cx="665.6" cy="420.3" r="1.8" fill="#CD2285"></circle><circle cx="666" cy="419.8" r="1.8" fill="#CD2285"></circle><circle cx="666.5" cy="419.3" r="1.8" fill="#CD2285"></circle><circle cx="666.9" cy="418.8" r="1.8" fill="#CD2285"></circle><circle cx="667.3" cy="418.4" r="1.8" fill="#CD2285"></circle><circle cx="667.8" cy="417.9" r="1.8" fill="#CD2285"></circle><circle cx="668.2" cy="417.4" r="1.8" fill="#CD2285"></circle><circle cx="668.6" cy="416.9" r="1.8" fill="#CD2285"></circle><circle cx="669.1" cy="416.5" r="1.8" fill="#CD2285"></circle><circle cx="669.5" cy="416" r="1.8" fill="#CD2285"></circle><circle cx="669.9" cy="415.5" r="1.8" fill="#CD2285"></circle><circle cx="670.4" cy="415" r="1.8" fill="#CD2285"></circle><circle cx="670.8" cy="414.5" r="1.8" fill="#CD2285"></circle><circle cx="671.3" cy="414" r="1.8" fill="#CD2285"></circle><circle cx="671.7" cy="413.5" r="1.8" fill="#CD2285"></circle><circle cx="672.1" cy="413" r="1.8" fill="#CD2285"></circle><circle cx="672.6" cy="412.5" r="1.8" fill="#CD2285"></circle><circle cx="673" cy="412" r="1.8" fill="#CD2285"></circle><circle cx="673.4" cy="411.5" r="1.8" fill="#CD2285"></circle><circle cx="673.9" cy="411.1" r="1.8" fill="#CD2285"></circle><circle cx="674.3" cy="410.7" r="1.8" fill="#CD2285"></circle><circle cx="674.8" cy="410.4" r="1.8" fill="#CD2285"></circle><circle cx="675.2" cy="410.3" r="1.8" fill="#CD2285"></circle><circle cx="675.6" cy="410.1" r="1.8" fill="#CD2285"></circle><circle cx="676.1" cy="410" r="1.8" fill="#CD2285"></circle><circle cx="676.5" cy="409.9" r="1.8" fill="#CD2285"></circle><circle cx="676.9" cy="409.8" r="1.8" fill="#CD2285"></circle><circle cx="677.4" cy="409.7" r="1.8" fill="#CD2285"></circle><circle cx="677.8" cy="409.6" r="1.8" fill="#CD2285"></circle><circle cx="678.2" cy="409.5" r="1.8" fill="#CD2285"></circle><circle cx="678.7" cy="409.4" r="1.8" fill="#CD2285"></circle><circle cx="679.1" cy="409.3" r="1.8" fill="#CD2285"></circle><circle cx="679.6" cy="409.2" r="1.8" fill="#CD2285"></circle><circle cx="680" cy="409.1" r="1.8" fill="#CD2285"></circle><circle cx="680.4" cy="409" r="1.8" fill="#CD2285"></circle><circle cx="680.9" cy="408.8" r="1.8" fill="#CD2285"></circle><circle cx="681.3" cy="408.7" r="1.8" fill="#CD2285"></circle><circle cx="681.7" cy="408.6" r="1.8" fill="#CD2285"></circle><circle cx="682.2" cy="408.5" r="1.8" fill="#CD2285"></circle><circle cx="682.6" cy="408.4" r="1.8" fill="#CD2285"></circle><circle cx="683.1" cy="408.3" r="1.8" fill="#CD2285"></circle><circle cx="683.5" cy="408.2" r="1.8" fill="#CD2285"></circle><circle cx="683.9" cy="408.1" r="1.8" fill="#CD2285"></circle><circle cx="684.4" cy="408" r="1.8" fill="#CD2285"></circle><circle cx="684.8" cy="407.9" r="1.8" fill="#CD2285"></circle><circle cx="685.2" cy="407.8" r="1.8" fill="#CD2285"></circle><circle cx="685.7" cy="407.6" r="1.8" fill="#CD2285"></circle><circle cx="686.1" cy="407.5" r="1.8" fill="#CD2285"></circle><circle cx="686.6" cy="407.4" r="1.8" fill="#CD2285"></circle><circle cx="687" cy="407.3" r="1.8" fill="#CD2285"></circle><circle cx="687.4" cy="407" r="1.8" fill="#CD2285"></circle><circle cx="687.9" cy="406.8" r="1.8" fill="#CD2285"></circle><circle cx="688.3" cy="406.5" r="1.8" fill="#CD2285"></circle><circle cx="688.7" cy="406.1" r="1.8" fill="#CD2285"></circle><circle cx="689.2" cy="405.7" r="1.8" fill="#CD2285"></circle><circle cx="689.6" cy="405.4" r="1.8" fill="#CD2285"></circle><circle cx="690" cy="405" r="1.8" fill="#CD2285"></circle><circle cx="690.5" cy="404.6" r="1.8" fill="#CD2285"></circle><circle cx="690.9" cy="404.2" r="1.8" fill="#CD2285"></circle><circle cx="691.4" cy="403.9" r="1.8" fill="#CD2285"></circle><circle cx="691.8" cy="403.5" r="1.8" fill="#CD2285"></circle><circle cx="692.2" cy="403.1" r="1.8" fill="#CD2285"></circle><circle cx="692.7" cy="402.7" r="1.8" fill="#CD2285"></circle><circle cx="693.1" cy="402.3" r="1.8" fill="#CD2285"></circle><circle cx="693.5" cy="401.9" r="1.8" fill="#CD2285"></circle><circle cx="694" cy="401.6" r="1.8" fill="#CD2285"></circle><circle cx="694.4" cy="401.2" r="1.8" fill="#CD2285"></circle><circle cx="694.9" cy="400.8" r="1.8" fill="#CD2285"></circle><circle cx="695.3" cy="400.4" r="1.8" fill="#CD2285"></circle><circle cx="695.7" cy="399.9" r="1.8" fill="#CD2285"></circle><circle cx="696.2" cy="399.4" r="1.8" fill="#CD2285"></circle><circle cx="696.6" cy="398.8" r="1.8" fill="#CD2285"></circle><circle cx="697" cy="398.1" r="1.8" fill="#CD2285"></circle><circle cx="697.5" cy="397.4" r="1.8" fill="#CD2285"></circle><circle cx="697.9" cy="396.7" r="1.8" fill="#CD2285"></circle><circle cx="698.3" cy="395.9" r="1.8" fill="#CD2285"></circle><circle cx="698.8" cy="395.2" r="1.8" fill="#CD2285"></circle><circle cx="699.2" cy="394.4" r="1.8" fill="#CD2285"></circle><circle cx="699.7" cy="393.6" r="1.8" fill="#CD2285"></circle><circle cx="700.1" cy="392.8" r="1.8" fill="#CD2285"></circle><circle cx="700.5" cy="392" r="1.8" fill="#CD2285"></circle><circle cx="701" cy="391" r="1.8" fill="#CD2285"></circle><circle cx="701.4" cy="390.1" r="1.8" fill="#CD2285"></circle><circle cx="701.8" cy="389.1" r="1.8" fill="#CD2285"></circle><circle cx="702.3" cy="388" r="1.8" fill="#CD2285"></circle><circle cx="702.7" cy="387" r="1.8" fill="#CD2285"></circle><circle cx="703.2" cy="386" r="1.8" fill="#CD2285"></circle><circle cx="703.6" cy="384.9" r="1.8" fill="#CD2285"></circle><circle cx="704" cy="383.8" r="1.8" fill="#CD2285"></circle><circle cx="704.5" cy="382.7" r="1.8" fill="#CD2285"></circle><circle cx="704.9" cy="381.6" r="1.8" fill="#CD2285"></circle><circle cx="705.3" cy="380.4" r="1.8" fill="#CD2285"></circle><circle cx="705.8" cy="379.2" r="1.8" fill="#CD2285"></circle><circle cx="706.2" cy="378" r="1.8" fill="#CD2285"></circle><circle cx="706.6" cy="376.7" r="1.8" fill="#CD2285"></circle><circle cx="707.1" cy="375.4" r="1.8" fill="#CD2285"></circle><circle cx="707.5" cy="374.1" r="1.8" fill="#CD2285"></circle><circle cx="708" cy="372.8" r="1.8" fill="#CD2285"></circle><circle cx="708.4" cy="371.5" r="1.8" fill="#CD2285"></circle><circle cx="708.8" cy="370.1" r="1.8" fill="#CD2285"></circle><circle cx="709.3" cy="368.7" r="1.8" fill="#CD2285"></circle><circle cx="709.7" cy="367.2" r="1.8" fill="#CD2285"></circle><circle cx="710.1" cy="365.6" r="1.8" fill="#CD2285"></circle><circle cx="710.6" cy="363.9" r="1.8" fill="#CD2285"></circle><circle cx="711" cy="362.2" r="1.8" fill="#CD2285"></circle><circle cx="711.5" cy="360.5" r="1.8" fill="#CD2285"></circle><circle cx="711.9" cy="358.7" r="1.8" fill="#CD2285"></circle><circle cx="712.3" cy="357" r="1.8" fill="#CD2285"></circle><circle cx="712.8" cy="355.2" r="1.8" fill="#CD2285"></circle><circle cx="713.2" cy="353.4" r="1.8" fill="#CD2285"></circle><circle cx="713.6" cy="351.6" r="1.8" fill="#CD2285"></circle><circle cx="714.1" cy="349.7" r="1.8" fill="#CD2285"></circle><circle cx="714.5" cy="347.8" r="1.8" fill="#CD2285"></circle><circle cx="715" cy="345.8" r="1.8" fill="#CD2285"></circle><circle cx="715.4" cy="343.8" r="1.8" fill="#CD2285"></circle><circle cx="715.8" cy="341.9" r="1.8" fill="#CD2285"></circle><circle cx="716.3" cy="339.8" r="1.8" fill="#CD2285"></circle><circle cx="716.7" cy="337.8" r="1.8" fill="#CD2285"></circle><circle cx="717.1" cy="335.7" r="1.8" fill="#CD2285"></circle><circle cx="717.6" cy="333.5" r="1.8" fill="#CD2285"></circle><circle cx="718" cy="331.2" r="1.8" fill="#CD2285"></circle><circle cx="718.4" cy="328.8" r="1.8" fill="#CD2285"></circle><circle cx="718.9" cy="326.3" r="1.8" fill="#CD2285"></circle><circle cx="719.3" cy="323.7" r="1.8" fill="#CD2285"></circle><circle cx="719.8" cy="321.1" r="1.8" fill="#CD2285"></circle><circle cx="720.2" cy="318.4" r="1.8" fill="#CD2285"></circle><circle cx="720.6" cy="315.6" r="1.8" fill="#CD2285"></circle><circle cx="721.1" cy="312.9" r="1.8" fill="#CD2285"></circle><circle cx="721.5" cy="310.1" r="1.8" fill="#CD2285"></circle><circle cx="721.9" cy="307.3" r="1.8" fill="#CD2285"></circle><circle cx="722.4" cy="304.5" r="1.8" fill="#CD2285"></circle><circle cx="722.8" cy="301.7" r="1.8" fill="#CD2285"></circle><circle cx="723.3" cy="299" r="1.8" fill="#CD2285"></circle><circle cx="723.7" cy="296.3" r="1.8" fill="#CD2285"></circle><circle cx="724.1" cy="293.5" r="1.8" fill="#CD2285"></circle><circle cx="724.6" cy="290.7" r="1.8" fill="#CD2285"></circle><circle cx="725" cy="287.8" r="1.8" fill="#CD2285"></circle><circle cx="725.4" cy="284.9" r="1.8" fill="#CD2285"></circle><circle cx="725.9" cy="282" r="1.8" fill="#CD2285"></circle><circle cx="726.3" cy="279" r="1.8" fill="#CD2285"></circle><circle cx="726.7" cy="275.9" r="1.8" fill="#CD2285"></circle><circle cx="727.2" cy="272.7" r="1.8" fill="#CD2285"></circle><circle cx="727.6" cy="269.5" r="1.8" fill="#CD2285"></circle><circle cx="728.1" cy="266.1" r="1.8" fill="#CD2285"></circle><circle cx="728.5" cy="262.7" r="1.8" fill="#CD2285"></circle><circle cx="728.9" cy="259.2" r="1.8" fill="#CD2285"></circle><circle cx="729.4" cy="255.7" r="1.8" fill="#CD2285"></circle><circle cx="729.8" cy="252.1" r="1.8" fill="#CD2285"></circle><circle cx="730.2" cy="248.5" r="1.8" fill="#CD2285"></circle><circle cx="730.7" cy="244.9" r="1.8" fill="#CD2285"></circle><circle cx="731.1" cy="241.5" r="1.8" fill="#CD2285"></circle><circle cx="731.6" cy="236.5" r="1.8" fill="#CD2285"></circle><circle cx="732" cy="232.1" r="1.8" fill="#CD2285"></circle><circle cx="732.4" cy="228.2" r="1.8" fill="#CD2285"></circle><circle cx="732.9" cy="224.6" r="1.8" fill="#CD2285"></circle><circle cx="733.3" cy="221.2" r="1.8" fill="#CD2285"></circle><circle cx="733.7" cy="218" r="1.8" fill="#CD2285"></circle><circle cx="734.2" cy="214.9" r="1.8" fill="#CD2285"></circle><circle cx="734.6" cy="211.9" r="1.8" fill="#CD2285"></circle><circle cx="735" cy="208.9" r="1.8" fill="#CD2285"></circle><circle cx="735.5" cy="206" r="1.8" fill="#CD2285"></circle><circle cx="735.9" cy="203.1" r="1.8" fill="#CD2285"></circle><circle cx="736.4" cy="200.2" r="1.8" fill="#CD2285"></circle><circle cx="736.8" cy="197.1" r="1.8" fill="#CD2285"></circle><circle cx="737.2" cy="193.9" r="1.8" fill="#CD2285"></circle><circle cx="737.7" cy="190.4" r="1.8" fill="#CD2285"></circle><circle cx="738.1" cy="186.7" r="1.8" fill="#CD2285"></circle><circle cx="738.5" cy="182.7" r="1.8" fill="#CD2285"></circle><circle cx="739" cy="178.4" r="1.8" fill="#CD2285"></circle><circle cx="739.4" cy="174" r="1.8" fill="#CD2285"></circle><circle cx="739.9" cy="169.3" r="1.8" fill="#CD2285"></circle><circle cx="740.3" cy="164.4" r="1.8" fill="#CD2285"></circle><circle cx="740.7" cy="159.3" r="1.8" fill="#CD2285"></circle><circle cx="741.2" cy="154.3" r="1.8" fill="#CD2285"></circle><circle cx="741.6" cy="149.4" r="1.8" fill="#CD2285"></circle><circle cx="742" cy="144.9" r="1.8" fill="#CD2285"></circle><circle cx="742.5" cy="140.7" r="1.8" fill="#CD2285"></circle><circle cx="742.9" cy="137" r="1.8" fill="#CD2285"></circle><circle cx="743.3" cy="133.6" r="1.8" fill="#CD2285"></circle><circle cx="743.8" cy="130.3" r="1.8" fill="#CD2285"></circle><circle cx="744.2" cy="127.2" r="1.8" fill="#CD2285"></circle><circle cx="744.7" cy="124.2" r="1.8" fill="#CD2285"></circle><circle cx="745.1" cy="121.4" r="1.8" fill="#CD2285"></circle><circle cx="745.5" cy="118.7" r="1.8" fill="#CD2285"></circle><circle cx="746" cy="116.2" r="1.8" fill="#CD2285"></circle><circle cx="746.4" cy="114" r="1.8" fill="#CD2285"></circle><circle cx="746.8" cy="111.9" r="1.8" fill="#CD2285"></circle><circle cx="747.3" cy="110.1" r="1.8" fill="#CD2285"></circle><circle cx="747.7" cy="108.4" r="1.8" fill="#CD2285"></circle><circle cx="748.2" cy="106.9" r="1.8" fill="#CD2285"></circle><circle cx="748.6" cy="105.4" r="1.8" fill="#CD2285"></circle><circle cx="749" cy="104" r="1.8" fill="#CD2285"></circle><circle cx="749.5" cy="102.7" r="1.8" fill="#CD2285"></circle><circle cx="749.9" cy="101.5" r="1.8" fill="#CD2285"></circle><circle cx="750.3" cy="100.4" r="1.8" fill="#CD2285"></circle><circle cx="750.8" cy="99.3" r="1.8" fill="#CD2285"></circle><circle cx="751.2" cy="98.4" r="1.8" fill="#CD2285"></circle><circle cx="751.7" cy="97.6" r="1.8" fill="#CD2285"></circle><circle cx="752.1" cy="96.9" r="1.8" fill="#CD2285"></circle><circle cx="752.5" cy="96.2" r="1.8" fill="#CD2285"></circle><circle cx="753" cy="95.6" r="1.8" fill="#CD2285"></circle><circle cx="753.4" cy="94.9" r="1.8" fill="#CD2285"></circle><circle cx="753.8" cy="94.4" r="1.8" fill="#CD2285"></circle><circle cx="754.3" cy="93.8" r="1.8" fill="#CD2285"></circle><circle cx="754.7" cy="93.3" r="1.8" fill="#CD2285"></circle><circle cx="755.1" cy="92.9" r="1.8" fill="#CD2285"></circle><circle cx="755.6" cy="92.6" r="1.8" fill="#CD2285"></circle><circle cx="756" cy="92.4" r="1.8" fill="#CD2285"></circle><circle cx="756.5" cy="92.3" r="1.8" fill="#CD2285"></circle><circle cx="756.9" cy="92.2" r="1.8" fill="#CD2285"></circle><circle cx="757.3" cy="92.2" r="1.8" fill="#CD2285"></circle><circle cx="757.8" cy="92.4" r="1.8" fill="#CD2285"></circle><circle cx="758.2" cy="92.6" r="1.8" fill="#CD2285"></circle><circle cx="758.6" cy="93" r="1.8" fill="#CD2285"></circle><circle cx="759.1" cy="93.5" r="1.8" fill="#CD2285"></circle><circle cx="759.5" cy="94.1" r="1.8" fill="#CD2285"></circle><circle cx="760" cy="94.8" r="1.8" fill="#CD2285"></circle><circle cx="760.4" cy="95.6" r="1.8" fill="#CD2285"></circle><circle cx="760.8" cy="96.6" r="1.8" fill="#CD2285"></circle><circle cx="761.3" cy="97.7" r="1.8" fill="#CD2285"></circle><circle cx="761.7" cy="99" r="1.8" fill="#CD2285"></circle><circle cx="762.1" cy="100.4" r="1.8" fill="#CD2285"></circle><circle cx="762.6" cy="101.9" r="1.8" fill="#CD2285"></circle><circle cx="763" cy="103.5" r="1.8" fill="#CD2285"></circle></g></g></g></g></g><g class="SourcesFooter" style="fill:#777"><g style="fill:#777"><text font-size="12.60" x="15.0" y="567.9"><tspan x="15" y="567.88">Source: Gapminder (v6), HYDE (v3.2), UN (2019)</tspan></text></g><text font-size="12.60" x="15.0" y="582.5"><tspan x="15" y="582.48">Note: Historical country data is shown based on today&#x27;s geographical borders.</tspan></text><text font-size="12.60" x="529.5" y="567.9"><tspan x="529.45" y="567.88"><a target='_blank' style='fill: #777;' href='https://ourworldindata.org/future-population-growth'>OurWorldInData.org/future-population-growth</a> • <a style="fill: #777;" class="cclogo" href="http://creativecommons.org/licenses/by/4.0/deed.en_US" target="_blank">CC BY</a></tspan></text></g></svg>